<svg width="1060" height="700" viewBox="0 0 1060 700" fill="none" xmlns="http://www.w3.org/2000/svg">
<rect width="1060" height="700" rx="5" fill="#2E303E"/>
<rect x="20.5" y="90.5" width="371" height="166" rx="4.5" fill="#FFA724" fill-opacity="0.15"/>
<rect x="20.5" y="90.5" width="371" height="166" rx="4.5" stroke="#FFA724"/>
<rect x="20.5" y="380.5" width="371" height="271" rx="4.5" fill="#FFA724" fill-opacity="0.15"/>
<rect x="20.5" y="380.5" width="371" height="271" rx="4.5" stroke="#FFA724"/>
<rect x="668.5" y="90.5" width="371" height="166" rx="4.5" fill="#FFA724" fill-opacity="0.15"/>
<rect x="668.5" y="90.5" width="371" height="166" rx="4.5" stroke="#FFA724"/>
<rect x="668.5" y="380.5" width="371" height="271" rx="4.5" fill="#FFA724" fill-opacity="0.15"/>
<rect x="668.5" y="380.5" width="371" height="271" rx="4.5" stroke="#FFA724"/>
<path d="M159.399 121.671C159.399 122.919 158.97 123.998 158.242 124.791L158.957 125.597L157.904 126.481L157.15 125.636C156.526 125.974 155.785 126.156 154.966 126.156C152.366 126.156 150.533 124.258 150.533 121.671C150.533 119.084 152.366 117.186 154.966 117.186C157.566 117.186 159.399 119.084 159.399 121.671ZM154.966 124.804C155.421 124.804 155.837 124.713 156.201 124.544L155.122 123.322L156.175 122.451L157.254 123.66C157.631 123.127 157.839 122.438 157.839 121.671C157.839 119.877 156.708 118.538 154.966 118.538C153.211 118.538 152.093 119.877 152.093 121.671C152.093 123.452 153.211 124.804 154.966 124.804ZM160.434 122.854C160.434 121.034 161.76 119.565 163.619 119.565C165.504 119.565 166.713 121.008 166.713 122.984V123.309H161.864C161.968 124.258 162.683 125.038 163.866 125.038C164.477 125.038 165.205 124.791 165.647 124.349L166.271 125.246C165.647 125.844 164.724 126.156 163.723 126.156C161.838 126.156 160.434 124.843 160.434 122.854ZM163.619 120.683C162.449 120.683 161.916 121.58 161.851 122.347H165.387C165.361 121.606 164.854 120.683 163.619 120.683ZM175.757 126V121.905C175.757 121.229 175.458 120.774 174.73 120.774C174.119 120.774 173.547 121.203 173.274 121.606V126H171.909V121.905C171.909 121.229 171.61 120.774 170.869 120.774C170.271 120.774 169.712 121.203 169.426 121.619V126H168.061V119.721H169.426V120.579C169.686 120.189 170.518 119.565 171.467 119.565C172.403 119.565 172.975 120.033 173.183 120.722C173.547 120.15 174.379 119.565 175.315 119.565C176.472 119.565 177.122 120.189 177.122 121.463V126H175.757ZM183.128 126V125.168C182.673 125.675 181.893 126.156 180.905 126.156C179.553 126.156 178.89 125.454 178.89 124.167V119.721H180.255V123.673C180.255 124.648 180.749 124.947 181.516 124.947C182.205 124.947 182.803 124.557 183.128 124.128V119.721H184.493V126H183.128ZM188.721 126.26L191.802 117.069H192.816L189.735 126.26H188.721ZM202.036 126L200.112 122.763H198.604V126H197.083V117.329H200.892C202.608 117.329 203.726 118.447 203.726 120.046C203.726 121.593 202.712 122.425 201.672 122.594L203.791 126H202.036ZM202.166 120.046C202.166 119.214 201.542 118.668 200.684 118.668H198.604V121.424H200.684C201.542 121.424 202.166 120.878 202.166 120.046ZM204.424 122.854C204.424 121.034 205.75 119.565 207.609 119.565C209.494 119.565 210.703 121.008 210.703 122.984V123.309H205.854C205.958 124.258 206.673 125.038 207.856 125.038C208.467 125.038 209.195 124.791 209.637 124.349L210.261 125.246C209.637 125.844 208.714 126.156 207.713 126.156C205.828 126.156 204.424 124.843 204.424 122.854ZM207.609 120.683C206.439 120.683 205.906 121.58 205.841 122.347H209.377C209.351 121.606 208.844 120.683 207.609 120.683ZM216.288 126V122.074C216.288 121.099 215.794 120.774 215.027 120.774C214.325 120.774 213.727 121.19 213.415 121.619V126H212.05V119.721H213.415V120.579C213.831 120.085 214.637 119.565 215.625 119.565C216.977 119.565 217.653 120.293 217.653 121.58V126H216.288ZM222.26 126.156C220.271 126.156 219.036 124.661 219.036 122.854C219.036 121.06 220.271 119.565 222.26 119.565C224.275 119.565 225.497 121.06 225.497 122.854C225.497 124.661 224.275 126.156 222.26 126.156ZM222.26 124.947C223.43 124.947 224.08 123.972 224.08 122.854C224.08 121.749 223.43 120.774 222.26 120.774C221.103 120.774 220.453 121.749 220.453 122.854C220.453 123.972 221.103 124.947 222.26 124.947ZM231.298 126V125.142C230.817 125.766 230.089 126.156 229.283 126.156C227.671 126.156 226.488 124.934 226.488 122.867C226.488 120.839 227.658 119.565 229.283 119.565C230.063 119.565 230.791 119.929 231.298 120.592V117.329H232.663V126H231.298ZM231.298 124.115V121.619C230.986 121.151 230.323 120.774 229.673 120.774C228.594 120.774 227.905 121.645 227.905 122.867C227.905 124.076 228.594 124.947 229.673 124.947C230.323 124.947 230.986 124.583 231.298 124.115ZM234.042 122.854C234.042 121.034 235.368 119.565 237.227 119.565C239.112 119.565 240.321 121.008 240.321 122.984V123.309H235.472C235.576 124.258 236.291 125.038 237.474 125.038C238.085 125.038 238.813 124.791 239.255 124.349L239.879 125.246C239.255 125.844 238.332 126.156 237.331 126.156C235.446 126.156 234.042 124.843 234.042 122.854ZM237.227 120.683C236.057 120.683 235.524 121.58 235.459 122.347H238.995C238.969 121.606 238.462 120.683 237.227 120.683Z" fill="white"/>
<path d="M159.399 411.671C159.399 412.919 158.97 413.998 158.242 414.791L158.957 415.597L157.904 416.481L157.15 415.636C156.526 415.974 155.785 416.156 154.966 416.156C152.366 416.156 150.533 414.258 150.533 411.671C150.533 409.084 152.366 407.186 154.966 407.186C157.566 407.186 159.399 409.084 159.399 411.671ZM154.966 414.804C155.421 414.804 155.837 414.713 156.201 414.544L155.122 413.322L156.175 412.451L157.254 413.66C157.631 413.127 157.839 412.438 157.839 411.671C157.839 409.877 156.708 408.538 154.966 408.538C153.211 408.538 152.093 409.877 152.093 411.671C152.093 413.452 153.211 414.804 154.966 414.804ZM160.434 412.854C160.434 411.034 161.76 409.565 163.619 409.565C165.504 409.565 166.713 411.008 166.713 412.984V413.309H161.864C161.968 414.258 162.683 415.038 163.866 415.038C164.477 415.038 165.205 414.791 165.647 414.349L166.271 415.246C165.647 415.844 164.724 416.156 163.723 416.156C161.838 416.156 160.434 414.843 160.434 412.854ZM163.619 410.683C162.449 410.683 161.916 411.58 161.851 412.347H165.387C165.361 411.606 164.854 410.683 163.619 410.683ZM175.757 416V411.905C175.757 411.229 175.458 410.774 174.73 410.774C174.119 410.774 173.547 411.203 173.274 411.606V416H171.909V411.905C171.909 411.229 171.61 410.774 170.869 410.774C170.271 410.774 169.712 411.203 169.426 411.619V416H168.061V409.721H169.426V410.579C169.686 410.189 170.518 409.565 171.467 409.565C172.403 409.565 172.975 410.033 173.183 410.722C173.547 410.15 174.379 409.565 175.315 409.565C176.472 409.565 177.122 410.189 177.122 411.463V416H175.757ZM183.128 416V415.168C182.673 415.675 181.893 416.156 180.905 416.156C179.553 416.156 178.89 415.454 178.89 414.167V409.721H180.255V413.673C180.255 414.648 180.749 414.947 181.516 414.947C182.205 414.947 182.803 414.557 183.128 414.128V409.721H184.493V416H183.128ZM188.721 416.26L191.802 407.069H192.816L189.735 416.26H188.721ZM202.036 416L200.112 412.763H198.604V416H197.083V407.329H200.892C202.608 407.329 203.726 408.447 203.726 410.046C203.726 411.593 202.712 412.425 201.672 412.594L203.791 416H202.036ZM202.166 410.046C202.166 409.214 201.542 408.668 200.684 408.668H198.604V411.424H200.684C201.542 411.424 202.166 410.878 202.166 410.046ZM204.424 412.854C204.424 411.034 205.75 409.565 207.609 409.565C209.494 409.565 210.703 411.008 210.703 412.984V413.309H205.854C205.958 414.258 206.673 415.038 207.856 415.038C208.467 415.038 209.195 414.791 209.637 414.349L210.261 415.246C209.637 415.844 208.714 416.156 207.713 416.156C205.828 416.156 204.424 414.843 204.424 412.854ZM207.609 410.683C206.439 410.683 205.906 411.58 205.841 412.347H209.377C209.351 411.606 208.844 410.683 207.609 410.683ZM216.288 416V412.074C216.288 411.099 215.794 410.774 215.027 410.774C214.325 410.774 213.727 411.19 213.415 411.619V416H212.05V409.721H213.415V410.579C213.831 410.085 214.637 409.565 215.625 409.565C216.977 409.565 217.653 410.293 217.653 411.58V416H216.288ZM222.26 416.156C220.271 416.156 219.036 414.661 219.036 412.854C219.036 411.06 220.271 409.565 222.26 409.565C224.275 409.565 225.497 411.06 225.497 412.854C225.497 414.661 224.275 416.156 222.26 416.156ZM222.26 414.947C223.43 414.947 224.08 413.972 224.08 412.854C224.08 411.749 223.43 410.774 222.26 410.774C221.103 410.774 220.453 411.749 220.453 412.854C220.453 413.972 221.103 414.947 222.26 414.947ZM231.298 416V415.142C230.817 415.766 230.089 416.156 229.283 416.156C227.671 416.156 226.488 414.934 226.488 412.867C226.488 410.839 227.658 409.565 229.283 409.565C230.063 409.565 230.791 409.929 231.298 410.592V407.329H232.663V416H231.298ZM231.298 414.115V411.619C230.986 411.151 230.323 410.774 229.673 410.774C228.594 410.774 227.905 411.645 227.905 412.867C227.905 414.076 228.594 414.947 229.673 414.947C230.323 414.947 230.986 414.583 231.298 414.115ZM234.042 412.854C234.042 411.034 235.368 409.565 237.227 409.565C239.112 409.565 240.321 411.008 240.321 412.984V413.309H235.472C235.576 414.258 236.291 415.038 237.474 415.038C238.085 415.038 238.813 414.791 239.255 414.349L239.879 415.246C239.255 415.844 238.332 416.156 237.331 416.156C235.446 416.156 234.042 414.843 234.042 412.854ZM237.227 410.683C236.057 410.683 235.524 411.58 235.459 412.347H238.995C238.969 411.606 238.462 410.683 237.227 410.683Z" fill="white"/>
<path d="M807.399 121.671C807.399 122.919 806.97 123.998 806.242 124.791L806.957 125.597L805.904 126.481L805.15 125.636C804.526 125.974 803.785 126.156 802.966 126.156C800.366 126.156 798.533 124.258 798.533 121.671C798.533 119.084 800.366 117.186 802.966 117.186C805.566 117.186 807.399 119.084 807.399 121.671ZM802.966 124.804C803.421 124.804 803.837 124.713 804.201 124.544L803.122 123.322L804.175 122.451L805.254 123.66C805.631 123.127 805.839 122.438 805.839 121.671C805.839 119.877 804.708 118.538 802.966 118.538C801.211 118.538 800.093 119.877 800.093 121.671C800.093 123.452 801.211 124.804 802.966 124.804ZM808.434 122.854C808.434 121.034 809.76 119.565 811.619 119.565C813.504 119.565 814.713 121.008 814.713 122.984V123.309H809.864C809.968 124.258 810.683 125.038 811.866 125.038C812.477 125.038 813.205 124.791 813.647 124.349L814.271 125.246C813.647 125.844 812.724 126.156 811.723 126.156C809.838 126.156 808.434 124.843 808.434 122.854ZM811.619 120.683C810.449 120.683 809.916 121.58 809.851 122.347H813.387C813.361 121.606 812.854 120.683 811.619 120.683ZM823.757 126V121.905C823.757 121.229 823.458 120.774 822.73 120.774C822.119 120.774 821.547 121.203 821.274 121.606V126H819.909V121.905C819.909 121.229 819.61 120.774 818.869 120.774C818.271 120.774 817.712 121.203 817.426 121.619V126H816.061V119.721H817.426V120.579C817.686 120.189 818.518 119.565 819.467 119.565C820.403 119.565 820.975 120.033 821.183 120.722C821.547 120.15 822.379 119.565 823.315 119.565C824.472 119.565 825.122 120.189 825.122 121.463V126H823.757ZM831.128 126V125.168C830.673 125.675 829.893 126.156 828.905 126.156C827.553 126.156 826.89 125.454 826.89 124.167V119.721H828.255V123.673C828.255 124.648 828.749 124.947 829.516 124.947C830.205 124.947 830.803 124.557 831.128 124.128V119.721H832.493V126H831.128ZM836.721 126.26L839.802 117.069H840.816L837.735 126.26H836.721ZM850.036 126L848.112 122.763H846.604V126H845.083V117.329H848.892C850.608 117.329 851.726 118.447 851.726 120.046C851.726 121.593 850.712 122.425 849.672 122.594L851.791 126H850.036ZM850.166 120.046C850.166 119.214 849.542 118.668 848.684 118.668H846.604V121.424H848.684C849.542 121.424 850.166 120.878 850.166 120.046ZM852.424 122.854C852.424 121.034 853.75 119.565 855.609 119.565C857.494 119.565 858.703 121.008 858.703 122.984V123.309H853.854C853.958 124.258 854.673 125.038 855.856 125.038C856.467 125.038 857.195 124.791 857.637 124.349L858.261 125.246C857.637 125.844 856.714 126.156 855.713 126.156C853.828 126.156 852.424 124.843 852.424 122.854ZM855.609 120.683C854.439 120.683 853.906 121.58 853.841 122.347H857.377C857.351 121.606 856.844 120.683 855.609 120.683ZM864.288 126V122.074C864.288 121.099 863.794 120.774 863.027 120.774C862.325 120.774 861.727 121.19 861.415 121.619V126H860.05V119.721H861.415V120.579C861.831 120.085 862.637 119.565 863.625 119.565C864.977 119.565 865.653 120.293 865.653 121.58V126H864.288ZM870.26 126.156C868.271 126.156 867.036 124.661 867.036 122.854C867.036 121.06 868.271 119.565 870.26 119.565C872.275 119.565 873.497 121.06 873.497 122.854C873.497 124.661 872.275 126.156 870.26 126.156ZM870.26 124.947C871.43 124.947 872.08 123.972 872.08 122.854C872.08 121.749 871.43 120.774 870.26 120.774C869.103 120.774 868.453 121.749 868.453 122.854C868.453 123.972 869.103 124.947 870.26 124.947ZM879.298 126V125.142C878.817 125.766 878.089 126.156 877.283 126.156C875.671 126.156 874.488 124.934 874.488 122.867C874.488 120.839 875.658 119.565 877.283 119.565C878.063 119.565 878.791 119.929 879.298 120.592V117.329H880.663V126H879.298ZM879.298 124.115V121.619C878.986 121.151 878.323 120.774 877.673 120.774C876.594 120.774 875.905 121.645 875.905 122.867C875.905 124.076 876.594 124.947 877.673 124.947C878.323 124.947 878.986 124.583 879.298 124.115ZM882.042 122.854C882.042 121.034 883.368 119.565 885.227 119.565C887.112 119.565 888.321 121.008 888.321 122.984V123.309H883.472C883.576 124.258 884.291 125.038 885.474 125.038C886.085 125.038 886.813 124.791 887.255 124.349L887.879 125.246C887.255 125.844 886.332 126.156 885.331 126.156C883.446 126.156 882.042 124.843 882.042 122.854ZM885.227 120.683C884.057 120.683 883.524 121.58 883.459 122.347H886.995C886.969 121.606 886.462 120.683 885.227 120.683Z" fill="white"/>
<path d="M807.399 411.671C807.399 412.919 806.97 413.998 806.242 414.791L806.957 415.597L805.904 416.481L805.15 415.636C804.526 415.974 803.785 416.156 802.966 416.156C800.366 416.156 798.533 414.258 798.533 411.671C798.533 409.084 800.366 407.186 802.966 407.186C805.566 407.186 807.399 409.084 807.399 411.671ZM802.966 414.804C803.421 414.804 803.837 414.713 804.201 414.544L803.122 413.322L804.175 412.451L805.254 413.66C805.631 413.127 805.839 412.438 805.839 411.671C805.839 409.877 804.708 408.538 802.966 408.538C801.211 408.538 800.093 409.877 800.093 411.671C800.093 413.452 801.211 414.804 802.966 414.804ZM808.434 412.854C808.434 411.034 809.76 409.565 811.619 409.565C813.504 409.565 814.713 411.008 814.713 412.984V413.309H809.864C809.968 414.258 810.683 415.038 811.866 415.038C812.477 415.038 813.205 414.791 813.647 414.349L814.271 415.246C813.647 415.844 812.724 416.156 811.723 416.156C809.838 416.156 808.434 414.843 808.434 412.854ZM811.619 410.683C810.449 410.683 809.916 411.58 809.851 412.347H813.387C813.361 411.606 812.854 410.683 811.619 410.683ZM823.757 416V411.905C823.757 411.229 823.458 410.774 822.73 410.774C822.119 410.774 821.547 411.203 821.274 411.606V416H819.909V411.905C819.909 411.229 819.61 410.774 818.869 410.774C818.271 410.774 817.712 411.203 817.426 411.619V416H816.061V409.721H817.426V410.579C817.686 410.189 818.518 409.565 819.467 409.565C820.403 409.565 820.975 410.033 821.183 410.722C821.547 410.15 822.379 409.565 823.315 409.565C824.472 409.565 825.122 410.189 825.122 411.463V416H823.757ZM831.128 416V415.168C830.673 415.675 829.893 416.156 828.905 416.156C827.553 416.156 826.89 415.454 826.89 414.167V409.721H828.255V413.673C828.255 414.648 828.749 414.947 829.516 414.947C830.205 414.947 830.803 414.557 831.128 414.128V409.721H832.493V416H831.128ZM836.721 416.26L839.802 407.069H840.816L837.735 416.26H836.721ZM850.036 416L848.112 412.763H846.604V416H845.083V407.329H848.892C850.608 407.329 851.726 408.447 851.726 410.046C851.726 411.593 850.712 412.425 849.672 412.594L851.791 416H850.036ZM850.166 410.046C850.166 409.214 849.542 408.668 848.684 408.668H846.604V411.424H848.684C849.542 411.424 850.166 410.878 850.166 410.046ZM852.424 412.854C852.424 411.034 853.75 409.565 855.609 409.565C857.494 409.565 858.703 411.008 858.703 412.984V413.309H853.854C853.958 414.258 854.673 415.038 855.856 415.038C856.467 415.038 857.195 414.791 857.637 414.349L858.261 415.246C857.637 415.844 856.714 416.156 855.713 416.156C853.828 416.156 852.424 414.843 852.424 412.854ZM855.609 410.683C854.439 410.683 853.906 411.58 853.841 412.347H857.377C857.351 411.606 856.844 410.683 855.609 410.683ZM864.288 416V412.074C864.288 411.099 863.794 410.774 863.027 410.774C862.325 410.774 861.727 411.19 861.415 411.619V416H860.05V409.721H861.415V410.579C861.831 410.085 862.637 409.565 863.625 409.565C864.977 409.565 865.653 410.293 865.653 411.58V416H864.288ZM870.26 416.156C868.271 416.156 867.036 414.661 867.036 412.854C867.036 411.06 868.271 409.565 870.26 409.565C872.275 409.565 873.497 411.06 873.497 412.854C873.497 414.661 872.275 416.156 870.26 416.156ZM870.26 414.947C871.43 414.947 872.08 413.972 872.08 412.854C872.08 411.749 871.43 410.774 870.26 410.774C869.103 410.774 868.453 411.749 868.453 412.854C868.453 413.972 869.103 414.947 870.26 414.947ZM879.298 416V415.142C878.817 415.766 878.089 416.156 877.283 416.156C875.671 416.156 874.488 414.934 874.488 412.867C874.488 410.839 875.658 409.565 877.283 409.565C878.063 409.565 878.791 409.929 879.298 410.592V407.329H880.663V416H879.298ZM879.298 414.115V411.619C878.986 411.151 878.323 410.774 877.673 410.774C876.594 410.774 875.905 411.645 875.905 412.867C875.905 414.076 876.594 414.947 877.673 414.947C878.323 414.947 878.986 414.583 879.298 414.115ZM882.042 412.854C882.042 411.034 883.368 409.565 885.227 409.565C887.112 409.565 888.321 411.008 888.321 412.984V413.309H883.472C883.576 414.258 884.291 415.038 885.474 415.038C886.085 415.038 886.813 414.791 887.255 414.349L887.879 415.246C887.255 415.844 886.332 416.156 885.331 416.156C883.446 416.156 882.042 414.843 882.042 412.854ZM885.227 410.683C884.057 410.683 883.524 411.58 883.459 412.347H886.995C886.969 411.606 886.462 410.683 885.227 410.683Z" fill="white"/>
<rect x="50.5" y="162.5" width="135" height="64" rx="4.5" fill="#25444C"/>
<rect x="50.5" y="162.5" width="135" height="64" rx="4.5" stroke="#009485"/>
<path d="M64.5344 198.5V197.265L68.9674 191.168H64.5344V189.829H70.9434V191.064L66.5104 197.161H71.0344V198.5H64.5344ZM72.1117 195.354C72.1117 193.534 73.4377 192.065 75.2967 192.065C77.1817 192.065 78.3907 193.508 78.3907 195.484V195.809H73.5417C73.6457 196.758 74.3607 197.538 75.5437 197.538C76.1547 197.538 76.8827 197.291 77.3247 196.849L77.9487 197.746C77.3247 198.344 76.4017 198.656 75.4007 198.656C73.5157 198.656 72.1117 197.343 72.1117 195.354ZM75.2967 193.183C74.1267 193.183 73.5937 194.08 73.5287 194.847H77.0647C77.0387 194.106 76.5317 193.183 75.2967 193.183ZM81.103 200.892H79.738V192.221H81.103V193.079C81.571 192.455 82.299 192.065 83.118 192.065C84.743 192.065 85.9 193.287 85.9 195.354C85.9 197.421 84.743 198.656 83.118 198.656C82.325 198.656 81.61 198.305 81.103 197.629V200.892ZM84.483 195.354C84.483 194.145 83.794 193.274 82.715 193.274C82.078 193.274 81.402 193.651 81.103 194.119V196.602C81.402 197.057 82.078 197.447 82.715 197.447C83.794 197.447 84.483 196.576 84.483 195.354ZM91.53 198.5V194.548C91.53 193.573 91.023 193.274 90.256 193.274C89.567 193.274 88.969 193.69 88.644 194.119V198.5H87.279V189.829H88.644V193.079C89.06 192.585 89.879 192.065 90.867 192.065C92.219 192.065 92.895 192.767 92.895 194.054V198.5H91.53ZM94.6027 199.735C94.7457 199.8 94.9667 199.839 95.1227 199.839C95.5517 199.839 95.8377 199.709 96.0197 199.293L96.3317 198.578L93.7577 192.221H95.2137L97.0467 196.927L98.8797 192.221H100.349L97.3197 199.631C96.8907 200.697 96.1367 201.035 95.1617 201.048C94.9667 201.048 94.5897 201.009 94.3947 200.957L94.6027 199.735ZM101.206 198.5V192.221H102.571V193.144C103.039 192.546 103.793 192.078 104.612 192.078V193.43C104.495 193.404 104.352 193.391 104.183 193.391C103.611 193.391 102.844 193.781 102.571 194.223V198.5H101.206ZM112.886 198.5V197.824C112.418 198.357 111.69 198.656 110.858 198.656C109.831 198.656 108.674 197.967 108.674 196.576C108.674 195.133 109.831 194.535 110.858 194.535C111.703 194.535 112.431 194.808 112.886 195.341V194.405C112.886 193.677 112.288 193.235 111.417 193.235C110.715 193.235 110.104 193.495 109.558 194.028L108.999 193.079C109.727 192.39 110.637 192.065 111.638 192.065C113.029 192.065 114.251 192.65 114.251 194.34V198.5H112.886ZM112.886 197.07V196.121C112.574 195.692 111.989 195.471 111.391 195.471C110.624 195.471 110.052 195.913 110.052 196.602C110.052 197.278 110.624 197.72 111.391 197.72C111.989 197.72 112.574 197.499 112.886 197.07ZM117.386 200.892H116.021V192.221H117.386V193.079C117.854 192.455 118.582 192.065 119.401 192.065C121.026 192.065 122.183 193.287 122.183 195.354C122.183 197.421 121.026 198.656 119.401 198.656C118.608 198.656 117.893 198.305 117.386 197.629V200.892ZM120.766 195.354C120.766 194.145 120.077 193.274 118.998 193.274C118.361 193.274 117.685 193.651 117.386 194.119V196.602C117.685 197.057 118.361 197.447 118.998 197.447C120.077 197.447 120.766 196.576 120.766 195.354ZM124.927 200.892H123.562V192.221H124.927V193.079C125.395 192.455 126.123 192.065 126.942 192.065C128.567 192.065 129.724 193.287 129.724 195.354C129.724 197.421 128.567 198.656 126.942 198.656C126.149 198.656 125.434 198.305 124.927 197.629V200.892ZM128.307 195.354C128.307 194.145 127.618 193.274 126.539 193.274C125.902 193.274 125.226 193.651 124.927 194.119V196.602C125.226 197.057 125.902 197.447 126.539 197.447C127.618 197.447 128.307 196.576 128.307 195.354ZM131.103 198.5V189.829H132.468V198.5H131.103ZM134.915 191.181C134.46 191.181 134.07 190.804 134.07 190.336C134.07 189.868 134.46 189.491 134.915 189.491C135.383 189.491 135.76 189.868 135.76 190.336C135.76 190.804 135.383 191.181 134.915 191.181ZM134.239 198.5V192.221H135.604V198.5H134.239ZM136.985 195.354C136.985 193.456 138.324 192.065 140.235 192.065C141.457 192.065 142.198 192.585 142.64 193.183L141.743 194.015C141.392 193.521 140.911 193.274 140.3 193.274C139.156 193.274 138.402 194.132 138.402 195.354C138.402 196.576 139.156 197.447 140.3 197.447C140.911 197.447 141.392 197.187 141.743 196.706L142.64 197.538C142.198 198.136 141.457 198.656 140.235 198.656C138.324 198.656 136.985 197.265 136.985 195.354ZM147.672 198.5V197.824C147.204 198.357 146.476 198.656 145.644 198.656C144.617 198.656 143.46 197.967 143.46 196.576C143.46 195.133 144.617 194.535 145.644 194.535C146.489 194.535 147.217 194.808 147.672 195.341V194.405C147.672 193.677 147.074 193.235 146.203 193.235C145.501 193.235 144.89 193.495 144.344 194.028L143.785 193.079C144.513 192.39 145.423 192.065 146.424 192.065C147.815 192.065 149.037 192.65 149.037 194.34V198.5H147.672ZM147.672 197.07V196.121C147.36 195.692 146.775 195.471 146.177 195.471C145.41 195.471 144.838 195.913 144.838 196.602C144.838 197.278 145.41 197.72 146.177 197.72C146.775 197.72 147.36 197.499 147.672 197.07ZM152.691 198.656C151.638 198.656 151.079 198.084 151.079 197.044V193.417H150.039V192.221H151.079V190.505H152.444V192.221H153.718V193.417H152.444V196.706C152.444 197.135 152.652 197.447 153.042 197.447C153.302 197.447 153.549 197.343 153.653 197.226L153.978 198.253C153.731 198.487 153.328 198.656 152.691 198.656ZM155.634 191.181C155.179 191.181 154.789 190.804 154.789 190.336C154.789 189.868 155.179 189.491 155.634 189.491C156.102 189.491 156.479 189.868 156.479 190.336C156.479 190.804 156.102 191.181 155.634 191.181ZM154.958 198.5V192.221H156.323V198.5H154.958ZM160.927 198.656C158.938 198.656 157.703 197.161 157.703 195.354C157.703 193.56 158.938 192.065 160.927 192.065C162.942 192.065 164.164 193.56 164.164 195.354C164.164 197.161 162.942 198.656 160.927 198.656ZM160.927 197.447C162.097 197.447 162.747 196.472 162.747 195.354C162.747 194.249 162.097 193.274 160.927 193.274C159.77 193.274 159.12 194.249 159.12 195.354C159.12 196.472 159.77 197.447 160.927 197.447ZM169.784 198.5V194.574C169.784 193.599 169.29 193.274 168.523 193.274C167.821 193.274 167.223 193.69 166.911 194.119V198.5H165.546V192.221H166.911V193.079C167.327 192.585 168.133 192.065 169.121 192.065C170.473 192.065 171.149 192.793 171.149 194.08V198.5H169.784Z" fill="white"/>
<rect x="50.5" y="452.5" width="135" height="64" rx="4.5" fill="#25444C"/>
<rect x="50.5" y="452.5" width="135" height="64" rx="4.5" stroke="#009485"/>
<path d="M83.7252 488.5V479.829H85.2462V487.161H89.0682V488.5H83.7252ZM91.0781 481.181C90.6231 481.181 90.2331 480.804 90.2331 480.336C90.2331 479.868 90.6231 479.491 91.0781 479.491C91.5461 479.491 91.9231 479.868 91.9231 480.336C91.9231 480.804 91.5461 481.181 91.0781 481.181ZM90.4021 488.5V482.221H91.7671V488.5H90.4021ZM97.7758 488.5V484.574C97.7758 483.599 97.2818 483.274 96.5148 483.274C95.8128 483.274 95.2148 483.69 94.9028 484.119V488.5H93.5378V482.221H94.9028V483.079C95.3188 482.585 96.1248 482.065 97.1128 482.065C98.4648 482.065 99.1408 482.793 99.1408 484.08V488.5H97.7758ZM105.152 488.5V487.668C104.697 488.175 103.917 488.656 102.929 488.656C101.577 488.656 100.914 487.954 100.914 486.667V482.221H102.279V486.173C102.279 487.148 102.773 487.447 103.54 487.447C104.229 487.447 104.827 487.057 105.152 486.628V482.221H106.517V488.5H105.152ZM112.255 488.5L110.63 486.186L108.992 488.5H107.471L109.772 485.276L107.601 482.221H109.135L110.63 484.353L112.112 482.221H113.646L111.475 485.276L113.789 488.5H112.255ZM122.238 488.5L120.314 485.913L119.443 486.81V488.5H118.078V479.829H119.443V485.25L122.212 482.221H123.902L121.289 485.068L123.954 488.5H122.238ZM124.201 485.354C124.201 483.534 125.527 482.065 127.386 482.065C129.271 482.065 130.48 483.508 130.48 485.484V485.809H125.631C125.735 486.758 126.45 487.538 127.633 487.538C128.244 487.538 128.972 487.291 129.414 486.849L130.038 487.746C129.414 488.344 128.491 488.656 127.49 488.656C125.605 488.656 124.201 487.343 124.201 485.354ZM127.386 483.183C126.216 483.183 125.683 484.08 125.618 484.847H129.154C129.128 484.106 128.621 483.183 127.386 483.183ZM131.827 488.5V482.221H133.192V483.144C133.66 482.546 134.414 482.078 135.233 482.078V483.43C135.116 483.404 134.973 483.391 134.804 483.391C134.232 483.391 133.465 483.781 133.192 484.223V488.5H131.827ZM140.572 488.5V484.574C140.572 483.599 140.078 483.274 139.311 483.274C138.609 483.274 138.011 483.69 137.699 484.119V488.5H136.334V482.221H137.699V483.079C138.115 482.585 138.921 482.065 139.909 482.065C141.261 482.065 141.937 482.793 141.937 484.08V488.5H140.572ZM143.32 485.354C143.32 483.534 144.646 482.065 146.505 482.065C148.39 482.065 149.599 483.508 149.599 485.484V485.809H144.75C144.854 486.758 145.569 487.538 146.752 487.538C147.363 487.538 148.091 487.291 148.533 486.849L149.157 487.746C148.533 488.344 147.61 488.656 146.609 488.656C144.724 488.656 143.32 487.343 143.32 485.354ZM146.505 483.183C145.335 483.183 144.802 484.08 144.737 484.847H148.273C148.247 484.106 147.74 483.183 146.505 483.183ZM150.946 488.5V479.829H152.311V488.5H150.946Z" fill="white"/>
<rect x="50.5" y="557.5" width="135" height="64" rx="4.5" fill="#25444C"/>
<rect x="50.5" y="557.5" width="135" height="64" rx="4.5" stroke="#009485"/>
<path d="M71.9313 585.5V576.829H73.4523V584.161H77.2743V585.5H71.9313ZM79.2841 578.181C78.8291 578.181 78.4391 577.804 78.4391 577.336C78.4391 576.868 78.8291 576.491 79.2841 576.491C79.7521 576.491 80.1291 576.868 80.1291 577.336C80.1291 577.804 79.7521 578.181 79.2841 578.181ZM78.6081 585.5V579.221H79.9731V585.5H78.6081ZM85.9819 585.5V581.574C85.9819 580.599 85.4879 580.274 84.7209 580.274C84.0189 580.274 83.4209 580.69 83.1089 581.119V585.5H81.7439V579.221H83.1089V580.079C83.5249 579.585 84.3309 579.065 85.3189 579.065C86.6709 579.065 87.3469 579.793 87.3469 581.08V585.5H85.9819ZM93.3578 585.5V584.668C92.9028 585.175 92.1228 585.656 91.1348 585.656C89.7828 585.656 89.1198 584.954 89.1198 583.667V579.221H90.4848V583.173C90.4848 584.148 90.9788 584.447 91.7458 584.447C92.4348 584.447 93.0328 584.057 93.3578 583.628V579.221H94.7228V585.5H93.3578ZM100.461 585.5L98.8358 583.186L97.1978 585.5H95.6768L97.9778 582.276L95.8068 579.221H97.3408L98.8358 581.353L100.318 579.221H101.852L99.6808 582.276L101.995 585.5H100.461ZM110.522 585.5V584.668C110.067 585.175 109.287 585.656 108.299 585.656C106.947 585.656 106.284 584.954 106.284 583.667V579.221H107.649V583.173C107.649 584.148 108.143 584.447 108.91 584.447C109.599 584.447 110.197 584.057 110.522 583.628V579.221H111.887V585.5H110.522ZM113.114 584.681L113.738 583.693C114.18 584.148 115.051 584.577 115.87 584.577C116.689 584.577 117.105 584.278 117.105 583.81C117.105 583.264 116.442 583.069 115.675 582.9C114.596 582.666 113.309 582.38 113.309 580.976C113.309 579.949 114.193 579.065 115.779 579.065C116.845 579.065 117.651 579.442 118.223 579.949L117.651 580.911C117.274 580.482 116.572 580.157 115.792 580.157C115.077 580.157 114.622 580.417 114.622 580.859C114.622 581.34 115.246 581.509 115.987 581.678C117.079 581.912 118.418 582.224 118.418 583.706C118.418 584.811 117.495 585.656 115.805 585.656C114.739 585.656 113.764 585.318 113.114 584.681ZM119.402 582.354C119.402 580.534 120.728 579.065 122.587 579.065C124.472 579.065 125.681 580.508 125.681 582.484V582.809H120.832C120.936 583.758 121.651 584.538 122.834 584.538C123.445 584.538 124.173 584.291 124.615 583.849L125.239 584.746C124.615 585.344 123.692 585.656 122.691 585.656C120.806 585.656 119.402 584.343 119.402 582.354ZM122.587 580.183C121.417 580.183 120.884 581.08 120.819 581.847H124.355C124.329 581.106 123.822 580.183 122.587 580.183ZM127.028 585.5V579.221H128.393V580.144C128.861 579.546 129.615 579.078 130.434 579.078V580.43C130.317 580.404 130.174 580.391 130.005 580.391C129.433 580.391 128.666 580.781 128.393 581.223V585.5H127.028ZM130.989 584.681L131.613 583.693C132.055 584.148 132.926 584.577 133.745 584.577C134.564 584.577 134.98 584.278 134.98 583.81C134.98 583.264 134.317 583.069 133.55 582.9C132.471 582.666 131.184 582.38 131.184 580.976C131.184 579.949 132.068 579.065 133.654 579.065C134.72 579.065 135.526 579.442 136.098 579.949L135.526 580.911C135.149 580.482 134.447 580.157 133.667 580.157C132.952 580.157 132.497 580.417 132.497 580.859C132.497 581.34 133.121 581.509 133.862 581.678C134.954 581.912 136.293 582.224 136.293 583.706C136.293 584.811 135.37 585.656 133.68 585.656C132.614 585.656 131.639 585.318 130.989 584.681ZM139.032 587.892H137.667V579.221H139.032V580.079C139.5 579.455 140.228 579.065 141.047 579.065C142.672 579.065 143.829 580.287 143.829 582.354C143.829 584.421 142.672 585.656 141.047 585.656C140.254 585.656 139.539 585.305 139.032 584.629V587.892ZM142.412 582.354C142.412 581.145 141.723 580.274 140.644 580.274C140.007 580.274 139.331 580.651 139.032 581.119V583.602C139.331 584.057 140.007 584.447 140.644 584.447C141.723 584.447 142.412 583.576 142.412 582.354ZM149.043 585.5V584.824C148.575 585.357 147.847 585.656 147.015 585.656C145.988 585.656 144.831 584.967 144.831 583.576C144.831 582.133 145.988 581.535 147.015 581.535C147.86 581.535 148.588 581.808 149.043 582.341V581.405C149.043 580.677 148.445 580.235 147.574 580.235C146.872 580.235 146.261 580.495 145.715 581.028L145.156 580.079C145.884 579.39 146.794 579.065 147.795 579.065C149.186 579.065 150.408 579.65 150.408 581.34V585.5H149.043ZM149.043 584.07V583.121C148.731 582.692 148.146 582.471 147.548 582.471C146.781 582.471 146.209 582.913 146.209 583.602C146.209 584.278 146.781 584.72 147.548 584.72C148.146 584.72 148.731 584.499 149.043 584.07ZM151.787 582.354C151.787 580.456 153.126 579.065 155.037 579.065C156.259 579.065 157 579.585 157.442 580.183L156.545 581.015C156.194 580.521 155.713 580.274 155.102 580.274C153.958 580.274 153.204 581.132 153.204 582.354C153.204 583.576 153.958 584.447 155.102 584.447C155.713 584.447 156.194 584.187 156.545 583.706L157.442 584.538C157 585.136 156.259 585.656 155.037 585.656C153.126 585.656 151.787 584.265 151.787 582.354ZM158.249 582.354C158.249 580.534 159.575 579.065 161.434 579.065C163.319 579.065 164.528 580.508 164.528 582.484V582.809H159.679C159.783 583.758 160.498 584.538 161.681 584.538C162.292 584.538 163.02 584.291 163.462 583.849L164.086 584.746C163.462 585.344 162.539 585.656 161.538 585.656C159.653 585.656 158.249 584.343 158.249 582.354ZM161.434 580.183C160.264 580.183 159.731 581.08 159.666 581.847H163.202C163.176 581.106 162.669 580.183 161.434 580.183ZM90.7839 601.5V600.824C90.3159 601.357 89.5879 601.656 88.7559 601.656C87.7289 601.656 86.5719 600.967 86.5719 599.576C86.5719 598.133 87.7289 597.535 88.7559 597.535C89.6009 597.535 90.3289 597.808 90.7839 598.341V597.405C90.7839 596.677 90.1859 596.235 89.3149 596.235C88.6129 596.235 88.0019 596.495 87.4559 597.028L86.8969 596.079C87.6249 595.39 88.5349 595.065 89.5359 595.065C90.9269 595.065 92.1489 595.65 92.1489 597.34V601.5H90.7839ZM90.7839 600.07V599.121C90.4719 598.692 89.8869 598.471 89.2889 598.471C88.5219 598.471 87.9499 598.913 87.9499 599.602C87.9499 600.278 88.5219 600.72 89.2889 600.72C89.8869 600.72 90.4719 600.499 90.7839 600.07ZM95.2837 603.892H93.9187V595.221H95.2837V596.079C95.7517 595.455 96.4797 595.065 97.2987 595.065C98.9237 595.065 100.081 596.287 100.081 598.354C100.081 600.421 98.9237 601.656 97.2987 601.656C96.5057 601.656 95.7907 601.305 95.2837 600.629V603.892ZM98.6637 598.354C98.6637 597.145 97.9747 596.274 96.8957 596.274C96.2587 596.274 95.5827 596.651 95.2837 597.119V599.602C95.5827 600.057 96.2587 600.447 96.8957 600.447C97.9747 600.447 98.6637 599.576 98.6637 598.354ZM102.825 603.892H101.46V595.221H102.825V596.079C103.293 595.455 104.021 595.065 104.84 595.065C106.465 595.065 107.622 596.287 107.622 598.354C107.622 600.421 106.465 601.656 104.84 601.656C104.047 601.656 103.332 601.305 102.825 600.629V603.892ZM106.205 598.354C106.205 597.145 105.516 596.274 104.437 596.274C103.8 596.274 103.124 596.651 102.825 597.119V599.602C103.124 600.057 103.8 600.447 104.437 600.447C105.516 600.447 106.205 599.576 106.205 598.354ZM109.001 601.5V592.829H110.366V601.5H109.001ZM112.812 594.181C112.357 594.181 111.967 593.804 111.967 593.336C111.967 592.868 112.357 592.491 112.812 592.491C113.28 592.491 113.657 592.868 113.657 593.336C113.657 593.804 113.28 594.181 112.812 594.181ZM112.136 601.5V595.221H113.501V601.5H112.136ZM114.882 598.354C114.882 596.456 116.221 595.065 118.132 595.065C119.354 595.065 120.095 595.585 120.537 596.183L119.64 597.015C119.289 596.521 118.808 596.274 118.197 596.274C117.053 596.274 116.299 597.132 116.299 598.354C116.299 599.576 117.053 600.447 118.197 600.447C118.808 600.447 119.289 600.187 119.64 599.706L120.537 600.538C120.095 601.136 119.354 601.656 118.132 601.656C116.221 601.656 114.882 600.265 114.882 598.354ZM125.569 601.5V600.824C125.101 601.357 124.373 601.656 123.541 601.656C122.514 601.656 121.357 600.967 121.357 599.576C121.357 598.133 122.514 597.535 123.541 597.535C124.386 597.535 125.114 597.808 125.569 598.341V597.405C125.569 596.677 124.971 596.235 124.1 596.235C123.398 596.235 122.787 596.495 122.241 597.028L121.682 596.079C122.41 595.39 123.32 595.065 124.321 595.065C125.712 595.065 126.934 595.65 126.934 597.34V601.5H125.569ZM125.569 600.07V599.121C125.257 598.692 124.672 598.471 124.074 598.471C123.307 598.471 122.735 598.913 122.735 599.602C122.735 600.278 123.307 600.72 124.074 600.72C124.672 600.72 125.257 600.499 125.569 600.07ZM130.589 601.656C129.536 601.656 128.977 601.084 128.977 600.044V596.417H127.937V595.221H128.977V593.505H130.342V595.221H131.616V596.417H130.342V599.706C130.342 600.135 130.55 600.447 130.94 600.447C131.2 600.447 131.447 600.343 131.551 600.226L131.876 601.253C131.629 601.487 131.226 601.656 130.589 601.656ZM133.531 594.181C133.076 594.181 132.686 593.804 132.686 593.336C132.686 592.868 133.076 592.491 133.531 592.491C133.999 592.491 134.376 592.868 134.376 593.336C134.376 593.804 133.999 594.181 133.531 594.181ZM132.855 601.5V595.221H134.22V601.5H132.855ZM138.825 601.656C136.836 601.656 135.601 600.161 135.601 598.354C135.601 596.56 136.836 595.065 138.825 595.065C140.84 595.065 142.062 596.56 142.062 598.354C142.062 600.161 140.84 601.656 138.825 601.656ZM138.825 600.447C139.995 600.447 140.645 599.472 140.645 598.354C140.645 597.249 139.995 596.274 138.825 596.274C137.668 596.274 137.018 597.249 137.018 598.354C137.018 599.472 137.668 600.447 138.825 600.447ZM147.681 601.5V597.574C147.681 596.599 147.187 596.274 146.42 596.274C145.718 596.274 145.12 596.69 144.808 597.119V601.5H143.443V595.221H144.808V596.079C145.224 595.585 146.03 595.065 147.018 595.065C148.37 595.065 149.046 595.793 149.046 597.08V601.5H147.681Z" fill="white"/>
<rect x="874.5" y="162.5" width="135" height="64" rx="4.5" fill="#25444C"/>
<rect x="874.5" y="162.5" width="135" height="64" rx="4.5" stroke="#009485"/>
<path d="M888.534 198.5V197.265L892.967 191.168H888.534V189.829H894.943V191.064L890.51 197.161H895.034V198.5H888.534ZM896.112 195.354C896.112 193.534 897.438 192.065 899.297 192.065C901.182 192.065 902.391 193.508 902.391 195.484V195.809H897.542C897.646 196.758 898.361 197.538 899.544 197.538C900.155 197.538 900.883 197.291 901.325 196.849L901.949 197.746C901.325 198.344 900.402 198.656 899.401 198.656C897.516 198.656 896.112 197.343 896.112 195.354ZM899.297 193.183C898.127 193.183 897.594 194.08 897.529 194.847H901.065C901.039 194.106 900.532 193.183 899.297 193.183ZM905.103 200.892H903.738V192.221H905.103V193.079C905.571 192.455 906.299 192.065 907.118 192.065C908.743 192.065 909.9 193.287 909.9 195.354C909.9 197.421 908.743 198.656 907.118 198.656C906.325 198.656 905.61 198.305 905.103 197.629V200.892ZM908.483 195.354C908.483 194.145 907.794 193.274 906.715 193.274C906.078 193.274 905.402 193.651 905.103 194.119V196.602C905.402 197.057 906.078 197.447 906.715 197.447C907.794 197.447 908.483 196.576 908.483 195.354ZM915.53 198.5V194.548C915.53 193.573 915.023 193.274 914.256 193.274C913.567 193.274 912.969 193.69 912.644 194.119V198.5H911.279V189.829H912.644V193.079C913.06 192.585 913.879 192.065 914.867 192.065C916.219 192.065 916.895 192.767 916.895 194.054V198.5H915.53ZM918.603 199.735C918.746 199.8 918.967 199.839 919.123 199.839C919.552 199.839 919.838 199.709 920.02 199.293L920.332 198.578L917.758 192.221H919.214L921.047 196.927L922.88 192.221H924.349L921.32 199.631C920.891 200.697 920.137 201.035 919.162 201.048C918.967 201.048 918.59 201.009 918.395 200.957L918.603 199.735ZM925.206 198.5V192.221H926.571V193.144C927.039 192.546 927.793 192.078 928.612 192.078V193.43C928.495 193.404 928.352 193.391 928.183 193.391C927.611 193.391 926.844 193.781 926.571 194.223V198.5H925.206ZM936.886 198.5V197.824C936.418 198.357 935.69 198.656 934.858 198.656C933.831 198.656 932.674 197.967 932.674 196.576C932.674 195.133 933.831 194.535 934.858 194.535C935.703 194.535 936.431 194.808 936.886 195.341V194.405C936.886 193.677 936.288 193.235 935.417 193.235C934.715 193.235 934.104 193.495 933.558 194.028L932.999 193.079C933.727 192.39 934.637 192.065 935.638 192.065C937.029 192.065 938.251 192.65 938.251 194.34V198.5H936.886ZM936.886 197.07V196.121C936.574 195.692 935.989 195.471 935.391 195.471C934.624 195.471 934.052 195.913 934.052 196.602C934.052 197.278 934.624 197.72 935.391 197.72C935.989 197.72 936.574 197.499 936.886 197.07ZM941.386 200.892H940.021V192.221H941.386V193.079C941.854 192.455 942.582 192.065 943.401 192.065C945.026 192.065 946.183 193.287 946.183 195.354C946.183 197.421 945.026 198.656 943.401 198.656C942.608 198.656 941.893 198.305 941.386 197.629V200.892ZM944.766 195.354C944.766 194.145 944.077 193.274 942.998 193.274C942.361 193.274 941.685 193.651 941.386 194.119V196.602C941.685 197.057 942.361 197.447 942.998 197.447C944.077 197.447 944.766 196.576 944.766 195.354ZM948.927 200.892H947.562V192.221H948.927V193.079C949.395 192.455 950.123 192.065 950.942 192.065C952.567 192.065 953.724 193.287 953.724 195.354C953.724 197.421 952.567 198.656 950.942 198.656C950.149 198.656 949.434 198.305 948.927 197.629V200.892ZM952.307 195.354C952.307 194.145 951.618 193.274 950.539 193.274C949.902 193.274 949.226 193.651 948.927 194.119V196.602C949.226 197.057 949.902 197.447 950.539 197.447C951.618 197.447 952.307 196.576 952.307 195.354ZM955.103 198.5V189.829H956.468V198.5H955.103ZM958.915 191.181C958.46 191.181 958.07 190.804 958.07 190.336C958.07 189.868 958.46 189.491 958.915 189.491C959.383 189.491 959.76 189.868 959.76 190.336C959.76 190.804 959.383 191.181 958.915 191.181ZM958.239 198.5V192.221H959.604V198.5H958.239ZM960.985 195.354C960.985 193.456 962.324 192.065 964.235 192.065C965.457 192.065 966.198 192.585 966.64 193.183L965.743 194.015C965.392 193.521 964.911 193.274 964.3 193.274C963.156 193.274 962.402 194.132 962.402 195.354C962.402 196.576 963.156 197.447 964.3 197.447C964.911 197.447 965.392 197.187 965.743 196.706L966.64 197.538C966.198 198.136 965.457 198.656 964.235 198.656C962.324 198.656 960.985 197.265 960.985 195.354ZM971.672 198.5V197.824C971.204 198.357 970.476 198.656 969.644 198.656C968.617 198.656 967.46 197.967 967.46 196.576C967.46 195.133 968.617 194.535 969.644 194.535C970.489 194.535 971.217 194.808 971.672 195.341V194.405C971.672 193.677 971.074 193.235 970.203 193.235C969.501 193.235 968.89 193.495 968.344 194.028L967.785 193.079C968.513 192.39 969.423 192.065 970.424 192.065C971.815 192.065 973.037 192.65 973.037 194.34V198.5H971.672ZM971.672 197.07V196.121C971.36 195.692 970.775 195.471 970.177 195.471C969.41 195.471 968.838 195.913 968.838 196.602C968.838 197.278 969.41 197.72 970.177 197.72C970.775 197.72 971.36 197.499 971.672 197.07ZM976.691 198.656C975.638 198.656 975.079 198.084 975.079 197.044V193.417H974.039V192.221H975.079V190.505H976.444V192.221H977.718V193.417H976.444V196.706C976.444 197.135 976.652 197.447 977.042 197.447C977.302 197.447 977.549 197.343 977.653 197.226L977.978 198.253C977.731 198.487 977.328 198.656 976.691 198.656ZM979.634 191.181C979.179 191.181 978.789 190.804 978.789 190.336C978.789 189.868 979.179 189.491 979.634 189.491C980.102 189.491 980.479 189.868 980.479 190.336C980.479 190.804 980.102 191.181 979.634 191.181ZM978.958 198.5V192.221H980.323V198.5H978.958ZM984.927 198.656C982.938 198.656 981.703 197.161 981.703 195.354C981.703 193.56 982.938 192.065 984.927 192.065C986.942 192.065 988.164 193.56 988.164 195.354C988.164 197.161 986.942 198.656 984.927 198.656ZM984.927 197.447C986.097 197.447 986.747 196.472 986.747 195.354C986.747 194.249 986.097 193.274 984.927 193.274C983.77 193.274 983.12 194.249 983.12 195.354C983.12 196.472 983.77 197.447 984.927 197.447ZM993.784 198.5V194.574C993.784 193.599 993.29 193.274 992.523 193.274C991.821 193.274 991.223 193.69 990.911 194.119V198.5H989.546V192.221H990.911V193.079C991.327 192.585 992.133 192.065 993.121 192.065C994.473 192.065 995.149 192.793 995.149 194.08V198.5H993.784Z" fill="white"/>
<rect x="874.5" y="452.5" width="135" height="64" rx="4.5" fill="#25444C"/>
<rect x="874.5" y="452.5" width="135" height="64" rx="4.5" stroke="#009485"/>
<path d="M888.534 488.5V487.265L892.967 481.168H888.534V479.829H894.943V481.064L890.51 487.161H895.034V488.5H888.534ZM896.112 485.354C896.112 483.534 897.438 482.065 899.297 482.065C901.182 482.065 902.391 483.508 902.391 485.484V485.809H897.542C897.646 486.758 898.361 487.538 899.544 487.538C900.155 487.538 900.883 487.291 901.325 486.849L901.949 487.746C901.325 488.344 900.402 488.656 899.401 488.656C897.516 488.656 896.112 487.343 896.112 485.354ZM899.297 483.183C898.127 483.183 897.594 484.08 897.529 484.847H901.065C901.039 484.106 900.532 483.183 899.297 483.183ZM905.103 490.892H903.738V482.221H905.103V483.079C905.571 482.455 906.299 482.065 907.118 482.065C908.743 482.065 909.9 483.287 909.9 485.354C909.9 487.421 908.743 488.656 907.118 488.656C906.325 488.656 905.61 488.305 905.103 487.629V490.892ZM908.483 485.354C908.483 484.145 907.794 483.274 906.715 483.274C906.078 483.274 905.402 483.651 905.103 484.119V486.602C905.402 487.057 906.078 487.447 906.715 487.447C907.794 487.447 908.483 486.576 908.483 485.354ZM915.53 488.5V484.548C915.53 483.573 915.023 483.274 914.256 483.274C913.567 483.274 912.969 483.69 912.644 484.119V488.5H911.279V479.829H912.644V483.079C913.06 482.585 913.879 482.065 914.867 482.065C916.219 482.065 916.895 482.767 916.895 484.054V488.5H915.53ZM918.603 489.735C918.746 489.8 918.967 489.839 919.123 489.839C919.552 489.839 919.838 489.709 920.02 489.293L920.332 488.578L917.758 482.221H919.214L921.047 486.927L922.88 482.221H924.349L921.32 489.631C920.891 490.697 920.137 491.035 919.162 491.048C918.967 491.048 918.59 491.009 918.395 490.957L918.603 489.735ZM925.206 488.5V482.221H926.571V483.144C927.039 482.546 927.793 482.078 928.612 482.078V483.43C928.495 483.404 928.352 483.391 928.183 483.391C927.611 483.391 926.844 483.781 926.571 484.223V488.5H925.206ZM936.886 488.5V487.824C936.418 488.357 935.69 488.656 934.858 488.656C933.831 488.656 932.674 487.967 932.674 486.576C932.674 485.133 933.831 484.535 934.858 484.535C935.703 484.535 936.431 484.808 936.886 485.341V484.405C936.886 483.677 936.288 483.235 935.417 483.235C934.715 483.235 934.104 483.495 933.558 484.028L932.999 483.079C933.727 482.39 934.637 482.065 935.638 482.065C937.029 482.065 938.251 482.65 938.251 484.34V488.5H936.886ZM936.886 487.07V486.121C936.574 485.692 935.989 485.471 935.391 485.471C934.624 485.471 934.052 485.913 934.052 486.602C934.052 487.278 934.624 487.72 935.391 487.72C935.989 487.72 936.574 487.499 936.886 487.07ZM941.386 490.892H940.021V482.221H941.386V483.079C941.854 482.455 942.582 482.065 943.401 482.065C945.026 482.065 946.183 483.287 946.183 485.354C946.183 487.421 945.026 488.656 943.401 488.656C942.608 488.656 941.893 488.305 941.386 487.629V490.892ZM944.766 485.354C944.766 484.145 944.077 483.274 942.998 483.274C942.361 483.274 941.685 483.651 941.386 484.119V486.602C941.685 487.057 942.361 487.447 942.998 487.447C944.077 487.447 944.766 486.576 944.766 485.354ZM948.927 490.892H947.562V482.221H948.927V483.079C949.395 482.455 950.123 482.065 950.942 482.065C952.567 482.065 953.724 483.287 953.724 485.354C953.724 487.421 952.567 488.656 950.942 488.656C950.149 488.656 949.434 488.305 948.927 487.629V490.892ZM952.307 485.354C952.307 484.145 951.618 483.274 950.539 483.274C949.902 483.274 949.226 483.651 948.927 484.119V486.602C949.226 487.057 949.902 487.447 950.539 487.447C951.618 487.447 952.307 486.576 952.307 485.354ZM955.103 488.5V479.829H956.468V488.5H955.103ZM958.915 481.181C958.46 481.181 958.07 480.804 958.07 480.336C958.07 479.868 958.46 479.491 958.915 479.491C959.383 479.491 959.76 479.868 959.76 480.336C959.76 480.804 959.383 481.181 958.915 481.181ZM958.239 488.5V482.221H959.604V488.5H958.239ZM960.985 485.354C960.985 483.456 962.324 482.065 964.235 482.065C965.457 482.065 966.198 482.585 966.64 483.183L965.743 484.015C965.392 483.521 964.911 483.274 964.3 483.274C963.156 483.274 962.402 484.132 962.402 485.354C962.402 486.576 963.156 487.447 964.3 487.447C964.911 487.447 965.392 487.187 965.743 486.706L966.64 487.538C966.198 488.136 965.457 488.656 964.235 488.656C962.324 488.656 960.985 487.265 960.985 485.354ZM971.672 488.5V487.824C971.204 488.357 970.476 488.656 969.644 488.656C968.617 488.656 967.46 487.967 967.46 486.576C967.46 485.133 968.617 484.535 969.644 484.535C970.489 484.535 971.217 484.808 971.672 485.341V484.405C971.672 483.677 971.074 483.235 970.203 483.235C969.501 483.235 968.89 483.495 968.344 484.028L967.785 483.079C968.513 482.39 969.423 482.065 970.424 482.065C971.815 482.065 973.037 482.65 973.037 484.34V488.5H971.672ZM971.672 487.07V486.121C971.36 485.692 970.775 485.471 970.177 485.471C969.41 485.471 968.838 485.913 968.838 486.602C968.838 487.278 969.41 487.72 970.177 487.72C970.775 487.72 971.36 487.499 971.672 487.07ZM976.691 488.656C975.638 488.656 975.079 488.084 975.079 487.044V483.417H974.039V482.221H975.079V480.505H976.444V482.221H977.718V483.417H976.444V486.706C976.444 487.135 976.652 487.447 977.042 487.447C977.302 487.447 977.549 487.343 977.653 487.226L977.978 488.253C977.731 488.487 977.328 488.656 976.691 488.656ZM979.634 481.181C979.179 481.181 978.789 480.804 978.789 480.336C978.789 479.868 979.179 479.491 979.634 479.491C980.102 479.491 980.479 479.868 980.479 480.336C980.479 480.804 980.102 481.181 979.634 481.181ZM978.958 488.5V482.221H980.323V488.5H978.958ZM984.927 488.656C982.938 488.656 981.703 487.161 981.703 485.354C981.703 483.56 982.938 482.065 984.927 482.065C986.942 482.065 988.164 483.56 988.164 485.354C988.164 487.161 986.942 488.656 984.927 488.656ZM984.927 487.447C986.097 487.447 986.747 486.472 986.747 485.354C986.747 484.249 986.097 483.274 984.927 483.274C983.77 483.274 983.12 484.249 983.12 485.354C983.12 486.472 983.77 487.447 984.927 487.447ZM993.784 488.5V484.574C993.784 483.599 993.29 483.274 992.523 483.274C991.821 483.274 991.223 483.69 990.911 484.119V488.5H989.546V482.221H990.911V483.079C991.327 482.585 992.133 482.065 993.121 482.065C994.473 482.065 995.149 482.793 995.149 484.08V488.5H993.784Z" fill="white"/>
<rect x="226.5" y="162.5" width="135" height="64" rx="4.5" fill="#25444C"/>
<rect x="226.5" y="162.5" width="135" height="64" rx="4.5" stroke="#009485"/>
<path d="M281.237 190.5V181.829H285.046C286.866 181.829 287.88 183.077 287.88 184.546C287.88 186.015 286.853 187.263 285.046 187.263H282.758V190.5H281.237ZM286.32 184.546C286.32 183.714 285.696 183.168 284.838 183.168H282.758V185.924H284.838C285.696 185.924 286.32 185.378 286.32 184.546ZM293.242 190.656C290.746 190.656 288.757 188.836 288.757 186.171C288.757 183.506 290.746 181.686 293.242 181.686C295.062 181.686 296.141 182.596 296.791 183.636L295.491 184.299C295.075 183.584 294.243 183.038 293.242 183.038C291.591 183.038 290.317 184.351 290.317 186.171C290.317 187.991 291.591 189.304 293.242 189.304C294.243 189.304 295.075 188.771 295.491 188.043L296.791 188.706C296.128 189.746 295.062 190.656 293.242 190.656ZM298.008 190.5V181.829H299.529V190.5H298.008ZM300.943 187.354C300.943 185.534 302.269 184.065 304.128 184.065C306.013 184.065 307.222 185.508 307.222 187.484V187.809H302.373C302.477 188.758 303.192 189.538 304.375 189.538C304.986 189.538 305.714 189.291 306.156 188.849L306.78 189.746C306.156 190.344 305.233 190.656 304.232 190.656C302.347 190.656 300.943 189.343 300.943 187.354ZM304.128 185.183C302.958 185.183 302.425 186.08 302.36 186.847H305.896C305.87 186.106 305.363 185.183 304.128 185.183ZM284.476 206.5V202.405C284.476 201.729 284.177 201.274 283.449 201.274C282.838 201.274 282.266 201.703 281.993 202.106V206.5H280.628V202.405C280.628 201.729 280.329 201.274 279.588 201.274C278.99 201.274 278.431 201.703 278.145 202.119V206.5H276.78V200.221H278.145V201.079C278.405 200.689 279.237 200.065 280.186 200.065C281.122 200.065 281.694 200.533 281.902 201.222C282.266 200.65 283.098 200.065 284.034 200.065C285.191 200.065 285.841 200.689 285.841 201.963V206.5H284.476ZM290.444 206.656C288.455 206.656 287.22 205.161 287.22 203.354C287.22 201.56 288.455 200.065 290.444 200.065C292.459 200.065 293.681 201.56 293.681 203.354C293.681 205.161 292.459 206.656 290.444 206.656ZM290.444 205.447C291.614 205.447 292.264 204.472 292.264 203.354C292.264 202.249 291.614 201.274 290.444 201.274C289.287 201.274 288.637 202.249 288.637 203.354C288.637 204.472 289.287 205.447 290.444 205.447ZM299.482 206.5V205.642C299.001 206.266 298.273 206.656 297.467 206.656C295.855 206.656 294.672 205.434 294.672 203.367C294.672 201.339 295.842 200.065 297.467 200.065C298.247 200.065 298.975 200.429 299.482 201.092V197.829H300.847V206.5H299.482ZM299.482 204.615V202.119C299.17 201.651 298.507 201.274 297.857 201.274C296.778 201.274 296.089 202.145 296.089 203.367C296.089 204.576 296.778 205.447 297.857 205.447C298.507 205.447 299.17 205.083 299.482 204.615ZM302.225 203.354C302.225 201.534 303.551 200.065 305.41 200.065C307.295 200.065 308.504 201.508 308.504 203.484V203.809H303.655C303.759 204.758 304.474 205.538 305.657 205.538C306.268 205.538 306.996 205.291 307.438 204.849L308.062 205.746C307.438 206.344 306.515 206.656 305.514 206.656C303.629 206.656 302.225 205.343 302.225 203.354ZM305.41 201.183C304.24 201.183 303.707 202.08 303.642 202.847H307.178C307.152 202.106 306.645 201.183 305.41 201.183ZM309.852 206.5V197.829H311.217V206.5H309.852Z" fill="white"/>
<rect x="226.5" y="452.5" width="135" height="64" rx="4.5" fill="#25444C"/>
<rect x="226.5" y="452.5" width="135" height="64" rx="4.5" stroke="#009485"/>
<path d="M281.237 480.5V471.829H285.046C286.866 471.829 287.88 473.077 287.88 474.546C287.88 476.015 286.853 477.263 285.046 477.263H282.758V480.5H281.237ZM286.32 474.546C286.32 473.714 285.696 473.168 284.838 473.168H282.758V475.924H284.838C285.696 475.924 286.32 475.378 286.32 474.546ZM293.242 480.656C290.746 480.656 288.757 478.836 288.757 476.171C288.757 473.506 290.746 471.686 293.242 471.686C295.062 471.686 296.141 472.596 296.791 473.636L295.491 474.299C295.075 473.584 294.243 473.038 293.242 473.038C291.591 473.038 290.317 474.351 290.317 476.171C290.317 477.991 291.591 479.304 293.242 479.304C294.243 479.304 295.075 478.771 295.491 478.043L296.791 478.706C296.128 479.746 295.062 480.656 293.242 480.656ZM298.008 480.5V471.829H299.529V480.5H298.008ZM300.943 477.354C300.943 475.534 302.269 474.065 304.128 474.065C306.013 474.065 307.222 475.508 307.222 477.484V477.809H302.373C302.477 478.758 303.192 479.538 304.375 479.538C304.986 479.538 305.714 479.291 306.156 478.849L306.78 479.746C306.156 480.344 305.233 480.656 304.232 480.656C302.347 480.656 300.943 479.343 300.943 477.354ZM304.128 475.183C302.958 475.183 302.425 476.08 302.36 476.847H305.896C305.87 476.106 305.363 475.183 304.128 475.183ZM284.476 496.5V492.405C284.476 491.729 284.177 491.274 283.449 491.274C282.838 491.274 282.266 491.703 281.993 492.106V496.5H280.628V492.405C280.628 491.729 280.329 491.274 279.588 491.274C278.99 491.274 278.431 491.703 278.145 492.119V496.5H276.78V490.221H278.145V491.079C278.405 490.689 279.237 490.065 280.186 490.065C281.122 490.065 281.694 490.533 281.902 491.222C282.266 490.65 283.098 490.065 284.034 490.065C285.191 490.065 285.841 490.689 285.841 491.963V496.5H284.476ZM290.444 496.656C288.455 496.656 287.22 495.161 287.22 493.354C287.22 491.56 288.455 490.065 290.444 490.065C292.459 490.065 293.681 491.56 293.681 493.354C293.681 495.161 292.459 496.656 290.444 496.656ZM290.444 495.447C291.614 495.447 292.264 494.472 292.264 493.354C292.264 492.249 291.614 491.274 290.444 491.274C289.287 491.274 288.637 492.249 288.637 493.354C288.637 494.472 289.287 495.447 290.444 495.447ZM299.482 496.5V495.642C299.001 496.266 298.273 496.656 297.467 496.656C295.855 496.656 294.672 495.434 294.672 493.367C294.672 491.339 295.842 490.065 297.467 490.065C298.247 490.065 298.975 490.429 299.482 491.092V487.829H300.847V496.5H299.482ZM299.482 494.615V492.119C299.17 491.651 298.507 491.274 297.857 491.274C296.778 491.274 296.089 492.145 296.089 493.367C296.089 494.576 296.778 495.447 297.857 495.447C298.507 495.447 299.17 495.083 299.482 494.615ZM302.225 493.354C302.225 491.534 303.551 490.065 305.41 490.065C307.295 490.065 308.504 491.508 308.504 493.484V493.809H303.655C303.759 494.758 304.474 495.538 305.657 495.538C306.268 495.538 306.996 495.291 307.438 494.849L308.062 495.746C307.438 496.344 306.515 496.656 305.514 496.656C303.629 496.656 302.225 495.343 302.225 493.354ZM305.41 491.183C304.24 491.183 303.707 492.08 303.642 492.847H307.178C307.152 492.106 306.645 491.183 305.41 491.183ZM309.852 496.5V487.829H311.217V496.5H309.852Z" fill="white"/>
<rect x="698.5" y="162.5" width="135" height="64" rx="4.5" fill="#25444C"/>
<rect x="698.5" y="162.5" width="135" height="64" rx="4.5" stroke="#009485"/>
<path d="M753.237 190.5V181.829H757.046C758.866 181.829 759.88 183.077 759.88 184.546C759.88 186.015 758.853 187.263 757.046 187.263H754.758V190.5H753.237ZM758.32 184.546C758.32 183.714 757.696 183.168 756.838 183.168H754.758V185.924H756.838C757.696 185.924 758.32 185.378 758.32 184.546ZM765.242 190.656C762.746 190.656 760.757 188.836 760.757 186.171C760.757 183.506 762.746 181.686 765.242 181.686C767.062 181.686 768.141 182.596 768.791 183.636L767.491 184.299C767.075 183.584 766.243 183.038 765.242 183.038C763.591 183.038 762.317 184.351 762.317 186.171C762.317 187.991 763.591 189.304 765.242 189.304C766.243 189.304 767.075 188.771 767.491 188.043L768.791 188.706C768.128 189.746 767.062 190.656 765.242 190.656ZM770.008 190.5V181.829H771.529V190.5H770.008ZM772.943 187.354C772.943 185.534 774.269 184.065 776.128 184.065C778.013 184.065 779.222 185.508 779.222 187.484V187.809H774.373C774.477 188.758 775.192 189.538 776.375 189.538C776.986 189.538 777.714 189.291 778.156 188.849L778.78 189.746C778.156 190.344 777.233 190.656 776.232 190.656C774.347 190.656 772.943 189.343 772.943 187.354ZM776.128 185.183C774.958 185.183 774.425 186.08 774.36 186.847H777.896C777.87 186.106 777.363 185.183 776.128 185.183ZM756.476 206.5V202.405C756.476 201.729 756.177 201.274 755.449 201.274C754.838 201.274 754.266 201.703 753.993 202.106V206.5H752.628V202.405C752.628 201.729 752.329 201.274 751.588 201.274C750.99 201.274 750.431 201.703 750.145 202.119V206.5H748.78V200.221H750.145V201.079C750.405 200.689 751.237 200.065 752.186 200.065C753.122 200.065 753.694 200.533 753.902 201.222C754.266 200.65 755.098 200.065 756.034 200.065C757.191 200.065 757.841 200.689 757.841 201.963V206.5H756.476ZM762.444 206.656C760.455 206.656 759.22 205.161 759.22 203.354C759.22 201.56 760.455 200.065 762.444 200.065C764.459 200.065 765.681 201.56 765.681 203.354C765.681 205.161 764.459 206.656 762.444 206.656ZM762.444 205.447C763.614 205.447 764.264 204.472 764.264 203.354C764.264 202.249 763.614 201.274 762.444 201.274C761.287 201.274 760.637 202.249 760.637 203.354C760.637 204.472 761.287 205.447 762.444 205.447ZM771.482 206.5V205.642C771.001 206.266 770.273 206.656 769.467 206.656C767.855 206.656 766.672 205.434 766.672 203.367C766.672 201.339 767.842 200.065 769.467 200.065C770.247 200.065 770.975 200.429 771.482 201.092V197.829H772.847V206.5H771.482ZM771.482 204.615V202.119C771.17 201.651 770.507 201.274 769.857 201.274C768.778 201.274 768.089 202.145 768.089 203.367C768.089 204.576 768.778 205.447 769.857 205.447C770.507 205.447 771.17 205.083 771.482 204.615ZM774.225 203.354C774.225 201.534 775.551 200.065 777.41 200.065C779.295 200.065 780.504 201.508 780.504 203.484V203.809H775.655C775.759 204.758 776.474 205.538 777.657 205.538C778.268 205.538 778.996 205.291 779.438 204.849L780.062 205.746C779.438 206.344 778.515 206.656 777.514 206.656C775.629 206.656 774.225 205.343 774.225 203.354ZM777.41 201.183C776.24 201.183 775.707 202.08 775.642 202.847H779.178C779.152 202.106 778.645 201.183 777.41 201.183ZM781.852 206.5V197.829H783.217V206.5H781.852Z" fill="white"/>
<rect x="698.5" y="452.5" width="135" height="64" rx="4.5" fill="#25444C"/>
<rect x="698.5" y="452.5" width="135" height="64" rx="4.5" stroke="#009485"/>
<path d="M753.237 480.5V471.829H757.046C758.866 471.829 759.88 473.077 759.88 474.546C759.88 476.015 758.853 477.263 757.046 477.263H754.758V480.5H753.237ZM758.32 474.546C758.32 473.714 757.696 473.168 756.838 473.168H754.758V475.924H756.838C757.696 475.924 758.32 475.378 758.32 474.546ZM765.242 480.656C762.746 480.656 760.757 478.836 760.757 476.171C760.757 473.506 762.746 471.686 765.242 471.686C767.062 471.686 768.141 472.596 768.791 473.636L767.491 474.299C767.075 473.584 766.243 473.038 765.242 473.038C763.591 473.038 762.317 474.351 762.317 476.171C762.317 477.991 763.591 479.304 765.242 479.304C766.243 479.304 767.075 478.771 767.491 478.043L768.791 478.706C768.128 479.746 767.062 480.656 765.242 480.656ZM770.008 480.5V471.829H771.529V480.5H770.008ZM772.943 477.354C772.943 475.534 774.269 474.065 776.128 474.065C778.013 474.065 779.222 475.508 779.222 477.484V477.809H774.373C774.477 478.758 775.192 479.538 776.375 479.538C776.986 479.538 777.714 479.291 778.156 478.849L778.78 479.746C778.156 480.344 777.233 480.656 776.232 480.656C774.347 480.656 772.943 479.343 772.943 477.354ZM776.128 475.183C774.958 475.183 774.425 476.08 774.36 476.847H777.896C777.87 476.106 777.363 475.183 776.128 475.183ZM756.476 496.5V492.405C756.476 491.729 756.177 491.274 755.449 491.274C754.838 491.274 754.266 491.703 753.993 492.106V496.5H752.628V492.405C752.628 491.729 752.329 491.274 751.588 491.274C750.99 491.274 750.431 491.703 750.145 492.119V496.5H748.78V490.221H750.145V491.079C750.405 490.689 751.237 490.065 752.186 490.065C753.122 490.065 753.694 490.533 753.902 491.222C754.266 490.65 755.098 490.065 756.034 490.065C757.191 490.065 757.841 490.689 757.841 491.963V496.5H756.476ZM762.444 496.656C760.455 496.656 759.22 495.161 759.22 493.354C759.22 491.56 760.455 490.065 762.444 490.065C764.459 490.065 765.681 491.56 765.681 493.354C765.681 495.161 764.459 496.656 762.444 496.656ZM762.444 495.447C763.614 495.447 764.264 494.472 764.264 493.354C764.264 492.249 763.614 491.274 762.444 491.274C761.287 491.274 760.637 492.249 760.637 493.354C760.637 494.472 761.287 495.447 762.444 495.447ZM771.482 496.5V495.642C771.001 496.266 770.273 496.656 769.467 496.656C767.855 496.656 766.672 495.434 766.672 493.367C766.672 491.339 767.842 490.065 769.467 490.065C770.247 490.065 770.975 490.429 771.482 491.092V487.829H772.847V496.5H771.482ZM771.482 494.615V492.119C771.17 491.651 770.507 491.274 769.857 491.274C768.778 491.274 768.089 492.145 768.089 493.367C768.089 494.576 768.778 495.447 769.857 495.447C770.507 495.447 771.17 495.083 771.482 494.615ZM774.225 493.354C774.225 491.534 775.551 490.065 777.41 490.065C779.295 490.065 780.504 491.508 780.504 493.484V493.809H775.655C775.759 494.758 776.474 495.538 777.657 495.538C778.268 495.538 778.996 495.291 779.438 494.849L780.062 495.746C779.438 496.344 778.515 496.656 777.514 496.656C775.629 496.656 774.225 495.343 774.225 493.354ZM777.41 491.183C776.24 491.183 775.707 492.08 775.642 492.847H779.178C779.152 492.106 778.645 491.183 777.41 491.183ZM781.852 496.5V487.829H783.217V496.5H781.852Z" fill="white"/>
<rect x="462.5" y="267.5" width="135" height="64" rx="4.5" fill="#FFA724" fill-opacity="0.15"/>
<rect x="462.5" y="267.5" width="135" height="64" rx="4.5" stroke="#FFA724"/>
<path d="M508.322 303.5L506.632 297.104L504.955 303.5H503.33L500.847 294.829H502.55L504.24 301.511L506.034 294.829H507.243L509.037 301.511L510.714 294.829H512.417L509.947 303.5H508.322ZM514.072 296.181C513.617 296.181 513.227 295.804 513.227 295.336C513.227 294.868 513.617 294.491 514.072 294.491C514.54 294.491 514.917 294.868 514.917 295.336C514.917 295.804 514.54 296.181 514.072 296.181ZM513.396 303.5V297.221H514.761V303.5H513.396ZM516.532 303.5V297.221H517.897V298.144C518.365 297.546 519.119 297.078 519.938 297.078V298.43C519.821 298.404 519.678 298.391 519.509 298.391C518.937 298.391 518.17 298.781 517.897 299.223V303.5H516.532ZM520.649 300.354C520.649 298.534 521.975 297.065 523.834 297.065C525.719 297.065 526.928 298.508 526.928 300.484V300.809H522.079C522.183 301.758 522.898 302.538 524.081 302.538C524.692 302.538 525.42 302.291 525.862 301.849L526.486 302.746C525.862 303.344 524.939 303.656 523.938 303.656C522.053 303.656 520.649 302.343 520.649 300.354ZM523.834 298.183C522.664 298.183 522.131 299.08 522.066 299.847H525.602C525.576 299.106 525.069 298.183 523.834 298.183ZM527.729 302.681L528.353 301.693C528.795 302.148 529.666 302.577 530.485 302.577C531.304 302.577 531.72 302.278 531.72 301.81C531.72 301.264 531.057 301.069 530.29 300.9C529.211 300.666 527.924 300.38 527.924 298.976C527.924 297.949 528.808 297.065 530.394 297.065C531.46 297.065 532.266 297.442 532.838 297.949L532.266 298.911C531.889 298.482 531.187 298.157 530.407 298.157C529.692 298.157 529.237 298.417 529.237 298.859C529.237 299.34 529.861 299.509 530.602 299.678C531.694 299.912 533.033 300.224 533.033 301.706C533.033 302.811 532.11 303.656 530.42 303.656C529.354 303.656 528.379 303.318 527.729 302.681ZM538.658 303.5V299.548C538.658 298.573 538.151 298.274 537.384 298.274C536.695 298.274 536.097 298.69 535.772 299.119V303.5H534.407V294.829H535.772V298.079C536.188 297.585 537.007 297.065 537.995 297.065C539.347 297.065 540.023 297.767 540.023 299.054V303.5H538.658ZM545.631 303.5V302.824C545.163 303.357 544.435 303.656 543.603 303.656C542.576 303.656 541.419 302.967 541.419 301.576C541.419 300.133 542.576 299.535 543.603 299.535C544.448 299.535 545.176 299.808 545.631 300.341V299.405C545.631 298.677 545.033 298.235 544.162 298.235C543.46 298.235 542.849 298.495 542.303 299.028L541.744 298.079C542.472 297.39 543.382 297.065 544.383 297.065C545.774 297.065 546.996 297.65 546.996 299.34V303.5H545.631ZM545.631 302.07V301.121C545.319 300.692 544.734 300.471 544.136 300.471C543.369 300.471 542.797 300.913 542.797 301.602C542.797 302.278 543.369 302.72 544.136 302.72C544.734 302.72 545.319 302.499 545.631 302.07ZM548.765 303.5V297.221H550.13V298.144C550.598 297.546 551.352 297.078 552.171 297.078V298.43C552.054 298.404 551.911 298.391 551.742 298.391C551.17 298.391 550.403 298.781 550.13 299.223V303.5H548.765ZM557.432 303.5L555.508 300.913L554.637 301.81V303.5H553.272V294.829H554.637V300.25L557.406 297.221H559.096L556.483 300.068L559.148 303.5H557.432Z" fill="white"/>
<rect x="462.5" y="557.5" width="135" height="64" rx="4.5" fill="#FFA724" fill-opacity="0.15"/>
<rect x="462.5" y="557.5" width="135" height="64" rx="4.5" stroke="#FFA724"/>
<path d="M508.322 593.5L506.632 587.104L504.955 593.5H503.33L500.847 584.829H502.55L504.24 591.511L506.034 584.829H507.243L509.037 591.511L510.714 584.829H512.417L509.947 593.5H508.322ZM514.072 586.181C513.617 586.181 513.227 585.804 513.227 585.336C513.227 584.868 513.617 584.491 514.072 584.491C514.54 584.491 514.917 584.868 514.917 585.336C514.917 585.804 514.54 586.181 514.072 586.181ZM513.396 593.5V587.221H514.761V593.5H513.396ZM516.532 593.5V587.221H517.897V588.144C518.365 587.546 519.119 587.078 519.938 587.078V588.43C519.821 588.404 519.678 588.391 519.509 588.391C518.937 588.391 518.17 588.781 517.897 589.223V593.5H516.532ZM520.649 590.354C520.649 588.534 521.975 587.065 523.834 587.065C525.719 587.065 526.928 588.508 526.928 590.484V590.809H522.079C522.183 591.758 522.898 592.538 524.081 592.538C524.692 592.538 525.42 592.291 525.862 591.849L526.486 592.746C525.862 593.344 524.939 593.656 523.938 593.656C522.053 593.656 520.649 592.343 520.649 590.354ZM523.834 588.183C522.664 588.183 522.131 589.08 522.066 589.847H525.602C525.576 589.106 525.069 588.183 523.834 588.183ZM527.729 592.681L528.353 591.693C528.795 592.148 529.666 592.577 530.485 592.577C531.304 592.577 531.72 592.278 531.72 591.81C531.72 591.264 531.057 591.069 530.29 590.9C529.211 590.666 527.924 590.38 527.924 588.976C527.924 587.949 528.808 587.065 530.394 587.065C531.46 587.065 532.266 587.442 532.838 587.949L532.266 588.911C531.889 588.482 531.187 588.157 530.407 588.157C529.692 588.157 529.237 588.417 529.237 588.859C529.237 589.34 529.861 589.509 530.602 589.678C531.694 589.912 533.033 590.224 533.033 591.706C533.033 592.811 532.11 593.656 530.42 593.656C529.354 593.656 528.379 593.318 527.729 592.681ZM538.658 593.5V589.548C538.658 588.573 538.151 588.274 537.384 588.274C536.695 588.274 536.097 588.69 535.772 589.119V593.5H534.407V584.829H535.772V588.079C536.188 587.585 537.007 587.065 537.995 587.065C539.347 587.065 540.023 587.767 540.023 589.054V593.5H538.658ZM545.631 593.5V592.824C545.163 593.357 544.435 593.656 543.603 593.656C542.576 593.656 541.419 592.967 541.419 591.576C541.419 590.133 542.576 589.535 543.603 589.535C544.448 589.535 545.176 589.808 545.631 590.341V589.405C545.631 588.677 545.033 588.235 544.162 588.235C543.46 588.235 542.849 588.495 542.303 589.028L541.744 588.079C542.472 587.39 543.382 587.065 544.383 587.065C545.774 587.065 546.996 587.65 546.996 589.34V593.5H545.631ZM545.631 592.07V591.121C545.319 590.692 544.734 590.471 544.136 590.471C543.369 590.471 542.797 590.913 542.797 591.602C542.797 592.278 543.369 592.72 544.136 592.72C544.734 592.72 545.319 592.499 545.631 592.07ZM548.765 593.5V587.221H550.13V588.144C550.598 587.546 551.352 587.078 552.171 587.078V588.43C552.054 588.404 551.911 588.391 551.742 588.391C551.17 588.391 550.403 588.781 550.13 589.223V593.5H548.765ZM557.432 593.5L555.508 590.913L554.637 591.81V593.5H553.272V584.829H554.637V590.25L557.406 587.221H559.096L556.483 590.068L559.148 593.5H557.432Z" fill="white"/>
<rect x="462.5" y="162.5" width="135" height="64" rx="4.5" fill="#FFA724" fill-opacity="0.15"/>
<rect x="462.5" y="162.5" width="135" height="64" rx="4.5" stroke="#FFA724"/>
<path d="M508.036 198.5L506.346 192.104L504.669 198.5H503.044L500.561 189.829H502.264L503.954 196.511L505.748 189.829H506.957L508.751 196.511L510.428 189.829H512.131L509.661 198.5H508.036ZM516.425 198.5V197.824C515.957 198.357 515.229 198.656 514.397 198.656C513.37 198.656 512.213 197.967 512.213 196.576C512.213 195.133 513.37 194.535 514.397 194.535C515.242 194.535 515.97 194.808 516.425 195.341V194.405C516.425 193.677 515.827 193.235 514.956 193.235C514.254 193.235 513.643 193.495 513.097 194.028L512.538 193.079C513.266 192.39 514.176 192.065 515.177 192.065C516.568 192.065 517.79 192.65 517.79 194.34V198.5H516.425ZM516.425 197.07V196.121C516.113 195.692 515.528 195.471 514.93 195.471C514.163 195.471 513.591 195.913 513.591 196.602C513.591 197.278 514.163 197.72 514.93 197.72C515.528 197.72 516.113 197.499 516.425 197.07ZM519.56 198.5V192.221H520.925V193.144C521.393 192.546 522.147 192.078 522.966 192.078V193.43C522.849 193.404 522.706 193.391 522.537 193.391C521.965 193.391 521.198 193.781 520.925 194.223V198.5H519.56ZM525.432 200.892H524.067V192.221H525.432V193.079C525.9 192.455 526.628 192.065 527.447 192.065C529.072 192.065 530.229 193.287 530.229 195.354C530.229 197.421 529.072 198.656 527.447 198.656C526.654 198.656 525.939 198.305 525.432 197.629V200.892ZM528.812 195.354C528.812 194.145 528.123 193.274 527.044 193.274C526.407 193.274 525.731 193.651 525.432 194.119V196.602C525.731 197.057 526.407 197.447 527.044 197.447C528.123 197.447 528.812 196.576 528.812 195.354ZM536.312 200.892H534.947V192.221H536.312V193.079C536.78 192.455 537.508 192.065 538.327 192.065C539.952 192.065 541.109 193.287 541.109 195.354C541.109 197.421 539.952 198.656 538.327 198.656C537.534 198.656 536.819 198.305 536.312 197.629V200.892ZM539.692 195.354C539.692 194.145 539.003 193.274 537.924 193.274C537.287 193.274 536.611 193.651 536.312 194.119V196.602C536.611 197.057 537.287 197.447 537.924 197.447C539.003 197.447 539.692 196.576 539.692 195.354ZM543.164 191.181C542.709 191.181 542.319 190.804 542.319 190.336C542.319 189.868 542.709 189.491 543.164 189.491C543.632 189.491 544.009 189.868 544.009 190.336C544.009 190.804 543.632 191.181 543.164 191.181ZM542.488 198.5V192.221H543.853V198.5H542.488ZM546.988 200.892H545.623V192.221H546.988V193.079C547.456 192.455 548.184 192.065 549.003 192.065C550.628 192.065 551.785 193.287 551.785 195.354C551.785 197.421 550.628 198.656 549.003 198.656C548.21 198.656 547.495 198.305 546.988 197.629V200.892ZM550.368 195.354C550.368 194.145 549.679 193.274 548.6 193.274C547.963 193.274 547.287 193.651 546.988 194.119V196.602C547.287 197.057 547.963 197.447 548.6 197.447C549.679 197.447 550.368 196.576 550.368 195.354ZM552.774 195.354C552.774 193.534 554.1 192.065 555.959 192.065C557.844 192.065 559.053 193.508 559.053 195.484V195.809H554.204C554.308 196.758 555.023 197.538 556.206 197.538C556.817 197.538 557.545 197.291 557.987 196.849L558.611 197.746C557.987 198.344 557.064 198.656 556.063 198.656C554.178 198.656 552.774 197.343 552.774 195.354ZM555.959 193.183C554.789 193.183 554.256 194.08 554.191 194.847H557.727C557.701 194.106 557.194 193.183 555.959 193.183Z" fill="white"/>
<rect x="462.5" y="452.5" width="135" height="64" rx="4.5" fill="#FFA724" fill-opacity="0.15"/>
<rect x="462.5" y="452.5" width="135" height="64" rx="4.5" stroke="#FFA724"/>
<path d="M508.036 488.5L506.346 482.104L504.669 488.5H503.044L500.561 479.829H502.264L503.954 486.511L505.748 479.829H506.957L508.751 486.511L510.428 479.829H512.131L509.661 488.5H508.036ZM516.425 488.5V487.824C515.957 488.357 515.229 488.656 514.397 488.656C513.37 488.656 512.213 487.967 512.213 486.576C512.213 485.133 513.37 484.535 514.397 484.535C515.242 484.535 515.97 484.808 516.425 485.341V484.405C516.425 483.677 515.827 483.235 514.956 483.235C514.254 483.235 513.643 483.495 513.097 484.028L512.538 483.079C513.266 482.39 514.176 482.065 515.177 482.065C516.568 482.065 517.79 482.65 517.79 484.34V488.5H516.425ZM516.425 487.07V486.121C516.113 485.692 515.528 485.471 514.93 485.471C514.163 485.471 513.591 485.913 513.591 486.602C513.591 487.278 514.163 487.72 514.93 487.72C515.528 487.72 516.113 487.499 516.425 487.07ZM519.56 488.5V482.221H520.925V483.144C521.393 482.546 522.147 482.078 522.966 482.078V483.43C522.849 483.404 522.706 483.391 522.537 483.391C521.965 483.391 521.198 483.781 520.925 484.223V488.5H519.56ZM525.432 490.892H524.067V482.221H525.432V483.079C525.9 482.455 526.628 482.065 527.447 482.065C529.072 482.065 530.229 483.287 530.229 485.354C530.229 487.421 529.072 488.656 527.447 488.656C526.654 488.656 525.939 488.305 525.432 487.629V490.892ZM528.812 485.354C528.812 484.145 528.123 483.274 527.044 483.274C526.407 483.274 525.731 483.651 525.432 484.119V486.602C525.731 487.057 526.407 487.447 527.044 487.447C528.123 487.447 528.812 486.576 528.812 485.354ZM536.312 490.892H534.947V482.221H536.312V483.079C536.78 482.455 537.508 482.065 538.327 482.065C539.952 482.065 541.109 483.287 541.109 485.354C541.109 487.421 539.952 488.656 538.327 488.656C537.534 488.656 536.819 488.305 536.312 487.629V490.892ZM539.692 485.354C539.692 484.145 539.003 483.274 537.924 483.274C537.287 483.274 536.611 483.651 536.312 484.119V486.602C536.611 487.057 537.287 487.447 537.924 487.447C539.003 487.447 539.692 486.576 539.692 485.354ZM543.164 481.181C542.709 481.181 542.319 480.804 542.319 480.336C542.319 479.868 542.709 479.491 543.164 479.491C543.632 479.491 544.009 479.868 544.009 480.336C544.009 480.804 543.632 481.181 543.164 481.181ZM542.488 488.5V482.221H543.853V488.5H542.488ZM546.988 490.892H545.623V482.221H546.988V483.079C547.456 482.455 548.184 482.065 549.003 482.065C550.628 482.065 551.785 483.287 551.785 485.354C551.785 487.421 550.628 488.656 549.003 488.656C548.21 488.656 547.495 488.305 546.988 487.629V490.892ZM550.368 485.354C550.368 484.145 549.679 483.274 548.6 483.274C547.963 483.274 547.287 483.651 546.988 484.119V486.602C547.287 487.057 547.963 487.447 548.6 487.447C549.679 487.447 550.368 486.576 550.368 485.354ZM552.774 485.354C552.774 483.534 554.1 482.065 555.959 482.065C557.844 482.065 559.053 483.508 559.053 485.484V485.809H554.204C554.308 486.758 555.023 487.538 556.206 487.538C556.817 487.538 557.545 487.291 557.987 486.849L558.611 487.746C557.987 488.344 557.064 488.656 556.063 488.656C554.178 488.656 552.774 487.343 552.774 485.354ZM555.959 483.183C554.789 483.183 554.256 484.08 554.191 484.847H557.727C557.701 484.106 557.194 483.183 555.959 483.183Z" fill="white"/>
<path d="M226 194L221 191.113V196.887L226 194ZM186 194.5H221.5V193.5H186V194.5Z" fill="white"/>
<path d="M226 484L221 481.113V486.887L226 484ZM186 484.5H221.5V483.5H186V484.5Z" fill="white"/>
<path d="M118 517L115.113 522H120.887L118 517ZM118.5 557V521.5H117.5V557H118.5Z" fill="white"/>
<path d="M834 194L839 196.887V191.113L834 194ZM874 193.5H838.5V194.5H874V193.5Z" fill="white"/>
<path d="M834 484L839 486.887V481.113L834 484ZM874 483.5H838.5V484.5H874V483.5Z" fill="white"/>
<path d="M530 267L532.887 262L527.113 262L530 267ZM529.5 227L529.5 262.5L530.5 262.5L530.5 227L529.5 227Z" fill="white"/>
<path d="M530 557L532.887 552L527.113 552L530 557ZM529.5 517L529.5 552.5L530.5 552.5L530.5 517L529.5 517Z" fill="white"/>
<path d="M362 194L367 196.887L367 191.113L362 194ZM462 194L457 191.113L457 196.887L462 194ZM366.5 194.5L457.5 194.5L457.5 193.5L366.5 193.5L366.5 194.5Z" fill="white"/>
<path d="M362 484L367 486.887L367 481.113L362 484ZM462 484L457 481.113L457 486.887L462 484ZM366.5 484.5L457.5 484.5L457.5 483.5L366.5 483.5L366.5 484.5Z" fill="white"/>
<path d="M598 194L603 196.887L603 191.113L598 194ZM698 194L693 191.113L693 196.887L698 194ZM602.5 194.5L693.5 194.5L693.5 193.5L602.5 193.5L602.5 194.5Z" fill="white"/>
<path d="M598 484L603 486.887L603 481.113L598 484ZM698 484L693 481.113L693 486.887L698 484ZM602.5 484.5L693.5 484.5L693.5 483.5L602.5 483.5L602.5 484.5Z" fill="white"/>
<path d="M383.809 185.872L384.589 184.792C385.141 185.38 386.005 185.896 387.121 185.896C388.273 185.896 388.729 185.332 388.729 184.804C388.729 184.084 387.877 183.868 386.905 183.616C385.597 183.292 384.061 182.908 384.061 181.216C384.061 179.896 385.225 178.876 386.977 178.876C388.225 178.876 389.233 179.272 389.977 179.992L389.173 181.036C388.549 180.412 387.697 180.124 386.857 180.124C386.029 180.124 385.501 180.52 385.501 181.12C385.501 181.744 386.317 181.948 387.265 182.188C388.585 182.524 390.157 182.932 390.157 184.672C390.157 186.004 389.221 187.144 387.061 187.144C385.585 187.144 384.517 186.628 383.809 185.872ZM394.03 187.144C392.194 187.144 391.054 185.764 391.054 184.096C391.054 182.44 392.194 181.06 394.03 181.06C395.89 181.06 397.018 182.44 397.018 184.096C397.018 185.764 395.89 187.144 394.03 187.144ZM394.03 186.028C395.11 186.028 395.71 185.128 395.71 184.096C395.71 183.076 395.11 182.176 394.03 182.176C392.962 182.176 392.362 183.076 392.362 184.096C392.362 185.128 392.962 186.028 394.03 186.028ZM397.933 184.096C397.933 182.344 399.169 181.06 400.933 181.06C402.061 181.06 402.745 181.54 403.153 182.092L402.325 182.86C402.001 182.404 401.557 182.176 400.993 182.176C399.937 182.176 399.241 182.968 399.241 184.096C399.241 185.224 399.937 186.028 400.993 186.028C401.557 186.028 402.001 185.788 402.325 185.344L403.153 186.112C402.745 186.664 402.061 187.144 400.933 187.144C399.169 187.144 397.933 185.86 397.933 184.096ZM408.097 187L406.321 184.612L405.517 185.44V187H404.257V178.996H405.517V184L408.073 181.204H409.633L407.221 183.832L409.681 187H408.097ZM409.909 184.096C409.909 182.416 411.133 181.06 412.849 181.06C414.589 181.06 415.705 182.392 415.705 184.216V184.516H411.229C411.325 185.392 411.985 186.112 413.077 186.112C413.641 186.112 414.313 185.884 414.721 185.476L415.297 186.304C414.721 186.856 413.869 187.144 412.945 187.144C411.205 187.144 409.909 185.932 409.909 184.096ZM412.849 182.092C411.769 182.092 411.277 182.92 411.217 183.628H414.481C414.457 182.944 413.989 182.092 412.849 182.092ZM418.689 187.144C417.717 187.144 417.201 186.616 417.201 185.656V182.308H416.241V181.204H417.201V179.62H418.461V181.204H419.637V182.308H418.461V185.344C418.461 185.74 418.653 186.028 419.013 186.028C419.253 186.028 419.481 185.932 419.577 185.824L419.877 186.772C419.649 186.988 419.277 187.144 418.689 187.144ZM429.563 187L428.975 185.464H425.183L424.595 187H423.059L426.203 178.996H427.955L431.099 187H429.563ZM427.079 180.184L425.579 184.228H428.579L427.079 180.184ZM431.973 187V178.996H435.489C437.169 178.996 438.105 180.148 438.105 181.504C438.105 182.86 437.157 184.012 435.489 184.012H433.377V187H431.973ZM436.665 181.504C436.665 180.736 436.089 180.232 435.297 180.232H433.377V182.776H435.297C436.089 182.776 436.665 182.272 436.665 181.504ZM439.274 187V178.996H440.678V187H439.274Z" fill="white"/>
<path d="M383.809 475.872L384.589 474.792C385.141 475.38 386.005 475.896 387.121 475.896C388.273 475.896 388.729 475.332 388.729 474.804C388.729 474.084 387.877 473.868 386.905 473.616C385.597 473.292 384.061 472.908 384.061 471.216C384.061 469.896 385.225 468.876 386.977 468.876C388.225 468.876 389.233 469.272 389.977 469.992L389.173 471.036C388.549 470.412 387.697 470.124 386.857 470.124C386.029 470.124 385.501 470.52 385.501 471.12C385.501 471.744 386.317 471.948 387.265 472.188C388.585 472.524 390.157 472.932 390.157 474.672C390.157 476.004 389.221 477.144 387.061 477.144C385.585 477.144 384.517 476.628 383.809 475.872ZM394.03 477.144C392.194 477.144 391.054 475.764 391.054 474.096C391.054 472.44 392.194 471.06 394.03 471.06C395.89 471.06 397.018 472.44 397.018 474.096C397.018 475.764 395.89 477.144 394.03 477.144ZM394.03 476.028C395.11 476.028 395.71 475.128 395.71 474.096C395.71 473.076 395.11 472.176 394.03 472.176C392.962 472.176 392.362 473.076 392.362 474.096C392.362 475.128 392.962 476.028 394.03 476.028ZM397.933 474.096C397.933 472.344 399.169 471.06 400.933 471.06C402.061 471.06 402.745 471.54 403.153 472.092L402.325 472.86C402.001 472.404 401.557 472.176 400.993 472.176C399.937 472.176 399.241 472.968 399.241 474.096C399.241 475.224 399.937 476.028 400.993 476.028C401.557 476.028 402.001 475.788 402.325 475.344L403.153 476.112C402.745 476.664 402.061 477.144 400.933 477.144C399.169 477.144 397.933 475.86 397.933 474.096ZM408.097 477L406.321 474.612L405.517 475.44V477H404.257V468.996H405.517V474L408.073 471.204H409.633L407.221 473.832L409.681 477H408.097ZM409.909 474.096C409.909 472.416 411.133 471.06 412.849 471.06C414.589 471.06 415.705 472.392 415.705 474.216V474.516H411.229C411.325 475.392 411.985 476.112 413.077 476.112C413.641 476.112 414.313 475.884 414.721 475.476L415.297 476.304C414.721 476.856 413.869 477.144 412.945 477.144C411.205 477.144 409.909 475.932 409.909 474.096ZM412.849 472.092C411.769 472.092 411.277 472.92 411.217 473.628H414.481C414.457 472.944 413.989 472.092 412.849 472.092ZM418.689 477.144C417.717 477.144 417.201 476.616 417.201 475.656V472.308H416.241V471.204H417.201V469.62H418.461V471.204H419.637V472.308H418.461V475.344C418.461 475.74 418.653 476.028 419.013 476.028C419.253 476.028 419.481 475.932 419.577 475.824L419.877 476.772C419.649 476.988 419.277 477.144 418.689 477.144ZM429.563 477L428.975 475.464H425.183L424.595 477H423.059L426.203 468.996H427.955L431.099 477H429.563ZM427.079 470.184L425.579 474.228H428.579L427.079 470.184ZM431.973 477V468.996H435.489C437.169 468.996 438.105 470.148 438.105 471.504C438.105 472.86 437.157 474.012 435.489 474.012H433.377V477H431.973ZM436.665 471.504C436.665 470.736 436.089 470.232 435.297 470.232H433.377V472.776H435.297C436.089 472.776 436.665 472.272 436.665 471.504ZM439.274 477V468.996H440.678V477H439.274Z" fill="white"/>
<path d="M618.809 185.872L619.589 184.792C620.141 185.38 621.005 185.896 622.121 185.896C623.273 185.896 623.729 185.332 623.729 184.804C623.729 184.084 622.877 183.868 621.905 183.616C620.597 183.292 619.061 182.908 619.061 181.216C619.061 179.896 620.225 178.876 621.977 178.876C623.225 178.876 624.233 179.272 624.977 179.992L624.173 181.036C623.549 180.412 622.697 180.124 621.857 180.124C621.029 180.124 620.501 180.52 620.501 181.12C620.501 181.744 621.317 181.948 622.265 182.188C623.585 182.524 625.157 182.932 625.157 184.672C625.157 186.004 624.221 187.144 622.061 187.144C620.585 187.144 619.517 186.628 618.809 185.872ZM629.03 187.144C627.194 187.144 626.054 185.764 626.054 184.096C626.054 182.44 627.194 181.06 629.03 181.06C630.89 181.06 632.018 182.44 632.018 184.096C632.018 185.764 630.89 187.144 629.03 187.144ZM629.03 186.028C630.11 186.028 630.71 185.128 630.71 184.096C630.71 183.076 630.11 182.176 629.03 182.176C627.962 182.176 627.362 183.076 627.362 184.096C627.362 185.128 627.962 186.028 629.03 186.028ZM632.933 184.096C632.933 182.344 634.169 181.06 635.933 181.06C637.061 181.06 637.745 181.54 638.153 182.092L637.325 182.86C637.001 182.404 636.557 182.176 635.993 182.176C634.937 182.176 634.241 182.968 634.241 184.096C634.241 185.224 634.937 186.028 635.993 186.028C636.557 186.028 637.001 185.788 637.325 185.344L638.153 186.112C637.745 186.664 637.061 187.144 635.933 187.144C634.169 187.144 632.933 185.86 632.933 184.096ZM643.097 187L641.321 184.612L640.517 185.44V187H639.257V178.996H640.517V184L643.073 181.204H644.633L642.221 183.832L644.681 187H643.097ZM644.909 184.096C644.909 182.416 646.133 181.06 647.849 181.06C649.589 181.06 650.705 182.392 650.705 184.216V184.516H646.229C646.325 185.392 646.985 186.112 648.077 186.112C648.641 186.112 649.313 185.884 649.721 185.476L650.297 186.304C649.721 186.856 648.869 187.144 647.945 187.144C646.205 187.144 644.909 185.932 644.909 184.096ZM647.849 182.092C646.769 182.092 646.277 182.92 646.217 183.628H649.481C649.457 182.944 648.989 182.092 647.849 182.092ZM653.689 187.144C652.717 187.144 652.201 186.616 652.201 185.656V182.308H651.241V181.204H652.201V179.62H653.461V181.204H654.637V182.308H653.461V185.344C653.461 185.74 653.653 186.028 654.013 186.028C654.253 186.028 654.481 185.932 654.577 185.824L654.877 186.772C654.649 186.988 654.277 187.144 653.689 187.144ZM664.563 187L663.975 185.464H660.183L659.595 187H658.059L661.203 178.996H662.955L666.099 187H664.563ZM662.079 180.184L660.579 184.228H663.579L662.079 180.184ZM666.973 187V178.996H670.489C672.169 178.996 673.105 180.148 673.105 181.504C673.105 182.86 672.157 184.012 670.489 184.012H668.377V187H666.973ZM671.665 181.504C671.665 180.736 671.089 180.232 670.297 180.232H668.377V182.776H670.297C671.089 182.776 671.665 182.272 671.665 181.504ZM674.274 187V178.996H675.678V187H674.274Z" fill="white"/>
<path d="M618.809 475.872L619.589 474.792C620.141 475.38 621.005 475.896 622.121 475.896C623.273 475.896 623.729 475.332 623.729 474.804C623.729 474.084 622.877 473.868 621.905 473.616C620.597 473.292 619.061 472.908 619.061 471.216C619.061 469.896 620.225 468.876 621.977 468.876C623.225 468.876 624.233 469.272 624.977 469.992L624.173 471.036C623.549 470.412 622.697 470.124 621.857 470.124C621.029 470.124 620.501 470.52 620.501 471.12C620.501 471.744 621.317 471.948 622.265 472.188C623.585 472.524 625.157 472.932 625.157 474.672C625.157 476.004 624.221 477.144 622.061 477.144C620.585 477.144 619.517 476.628 618.809 475.872ZM629.03 477.144C627.194 477.144 626.054 475.764 626.054 474.096C626.054 472.44 627.194 471.06 629.03 471.06C630.89 471.06 632.018 472.44 632.018 474.096C632.018 475.764 630.89 477.144 629.03 477.144ZM629.03 476.028C630.11 476.028 630.71 475.128 630.71 474.096C630.71 473.076 630.11 472.176 629.03 472.176C627.962 472.176 627.362 473.076 627.362 474.096C627.362 475.128 627.962 476.028 629.03 476.028ZM632.933 474.096C632.933 472.344 634.169 471.06 635.933 471.06C637.061 471.06 637.745 471.54 638.153 472.092L637.325 472.86C637.001 472.404 636.557 472.176 635.993 472.176C634.937 472.176 634.241 472.968 634.241 474.096C634.241 475.224 634.937 476.028 635.993 476.028C636.557 476.028 637.001 475.788 637.325 475.344L638.153 476.112C637.745 476.664 637.061 477.144 635.933 477.144C634.169 477.144 632.933 475.86 632.933 474.096ZM643.097 477L641.321 474.612L640.517 475.44V477H639.257V468.996H640.517V474L643.073 471.204H644.633L642.221 473.832L644.681 477H643.097ZM644.909 474.096C644.909 472.416 646.133 471.06 647.849 471.06C649.589 471.06 650.705 472.392 650.705 474.216V474.516H646.229C646.325 475.392 646.985 476.112 648.077 476.112C648.641 476.112 649.313 475.884 649.721 475.476L650.297 476.304C649.721 476.856 648.869 477.144 647.945 477.144C646.205 477.144 644.909 475.932 644.909 474.096ZM647.849 472.092C646.769 472.092 646.277 472.92 646.217 473.628H649.481C649.457 472.944 648.989 472.092 647.849 472.092ZM653.689 477.144C652.717 477.144 652.201 476.616 652.201 475.656V472.308H651.241V471.204H652.201V469.62H653.461V471.204H654.637V472.308H653.461V475.344C653.461 475.74 653.653 476.028 654.013 476.028C654.253 476.028 654.481 475.932 654.577 475.824L654.877 476.772C654.649 476.988 654.277 477.144 653.689 477.144ZM664.563 477L663.975 475.464H660.183L659.595 477H658.059L661.203 468.996H662.955L666.099 477H664.563ZM662.079 470.184L660.579 474.228H663.579L662.079 470.184ZM666.973 477V468.996H670.489C672.169 468.996 673.105 470.148 673.105 471.504C673.105 472.86 672.157 474.012 670.489 474.012H668.377V477H666.973ZM671.665 471.504C671.665 470.736 671.089 470.232 670.297 470.232H668.377V472.776H670.297C671.089 472.776 671.665 472.272 671.665 471.504ZM674.274 477V468.996H675.678V477H674.274Z" fill="white"/>
<path d="M481.761 50V35.326H488.977C491.661 35.326 493.157 36.998 493.157 39.066C493.157 40.914 491.969 42.146 490.605 42.432C492.167 42.674 493.443 44.236 493.443 46.04C493.443 48.306 491.925 50 489.175 50H481.761ZM484.335 41.398H488.449C489.769 41.398 490.517 40.606 490.517 39.506C490.517 38.406 489.769 37.592 488.449 37.592H484.335V41.398ZM484.335 47.734H488.559C489.967 47.734 490.803 46.964 490.803 45.688C490.803 44.588 490.033 43.664 488.559 43.664H484.335V47.734ZM502.451 50V48.856C501.659 49.758 500.427 50.264 499.019 50.264C497.281 50.264 495.323 49.098 495.323 46.744C495.323 44.302 497.281 43.29 499.019 43.29C500.449 43.29 501.681 43.752 502.451 44.654V43.07C502.451 41.838 501.439 41.09 499.965 41.09C498.777 41.09 497.743 41.53 496.819 42.432L495.873 40.826C497.105 39.66 498.645 39.11 500.339 39.11C502.693 39.11 504.761 40.1 504.761 42.96V50H502.451ZM502.451 47.58V45.974C501.923 45.248 500.933 44.874 499.921 44.874C498.623 44.874 497.655 45.622 497.655 46.788C497.655 47.932 498.623 48.68 499.921 48.68C500.933 48.68 501.923 48.306 502.451 47.58ZM506.832 48.614L507.888 46.942C508.636 47.712 510.11 48.438 511.496 48.438C512.882 48.438 513.586 47.932 513.586 47.14C513.586 46.216 512.464 45.886 511.166 45.6C509.34 45.204 507.162 44.72 507.162 42.344C507.162 40.606 508.658 39.11 511.342 39.11C513.146 39.11 514.51 39.748 515.478 40.606L514.51 42.234C513.872 41.508 512.684 40.958 511.364 40.958C510.154 40.958 509.384 41.398 509.384 42.146C509.384 42.96 510.44 43.246 511.694 43.532C513.542 43.928 515.808 44.456 515.808 46.964C515.808 48.834 514.246 50.264 511.386 50.264C509.582 50.264 507.932 49.692 506.832 48.614ZM519.277 37.614C518.507 37.614 517.847 36.976 517.847 36.184C517.847 35.392 518.507 34.754 519.277 34.754C520.069 34.754 520.707 35.392 520.707 36.184C520.707 36.976 520.069 37.614 519.277 37.614ZM518.133 50V39.374H520.443V50H518.133ZM522.779 44.676C522.779 41.464 525.045 39.11 528.279 39.11C530.347 39.11 531.601 39.99 532.349 41.002L530.831 42.41C530.237 41.574 529.423 41.156 528.389 41.156C526.453 41.156 525.177 42.608 525.177 44.676C525.177 46.744 526.453 48.218 528.389 48.218C529.423 48.218 530.237 47.778 530.831 46.964L532.349 48.372C531.601 49.384 530.347 50.264 528.279 50.264C525.045 50.264 522.779 47.91 522.779 44.676ZM540.575 50V41.398H538.815V39.374H540.575V38.78C540.575 36.404 541.983 35.106 543.941 35.106C544.667 35.106 545.327 35.26 545.789 35.524L545.283 37.24C545.063 37.086 544.755 36.998 544.359 36.998C543.457 36.998 542.885 37.592 542.885 38.78V39.374H545.041V41.398H542.885V50H540.575ZM546.801 50V35.326H549.111V50H546.801ZM556.896 50.264C553.53 50.264 551.44 47.734 551.44 44.676C551.44 41.64 553.53 39.11 556.896 39.11C560.306 39.11 562.374 41.64 562.374 44.676C562.374 47.734 560.306 50.264 556.896 50.264ZM556.896 48.218C558.876 48.218 559.976 46.568 559.976 44.676C559.976 42.806 558.876 41.156 556.896 41.156C554.938 41.156 553.838 42.806 553.838 44.676C553.838 46.568 554.938 48.218 556.896 48.218ZM573.973 50L571.509 42.212L569.045 50H566.625L563.325 39.374H565.723L567.967 47.096L570.497 39.374H572.521L575.051 47.096L577.295 39.374H579.693L576.393 50H573.973Z" fill="white"/>
</svg>
